<svg width="199" height="40" viewBox="0 0 199 40" fill="none" xmlns="http://www.w3.org/2000/svg">
<g clip-path="url(#clip0_952_7072)">
<path d="M191.666 7.90137L184.879 15.5134V7.90137H179.968V27.1172H184.879V19.0298L192.144 27.1172H198.488L189.553 17.0489L197.841 7.90137H191.666Z" fill="white"/>
<path d="M171.309 15.068H164.522V7.90137H159.608V27.1172H164.522V19.5407H171.309V27.1172H176.22V7.90137H171.309V15.068Z" fill="white"/>
<mask id="mask0_952_7072" style="mask-type:luminance" maskUnits="userSpaceOnUse" x="0" y="0" width="199" height="40">
<path d="M198.904 0H0V40H198.904V0Z" fill="white"/>
</mask>
<g mask="url(#mask0_952_7072)">
<path d="M28.7448 18.3117C28.6274 21.8964 28.1661 22.6122 26.1514 22.6122V27.1177H26.9021C31.9225 27.1177 33.1291 24.5221 33.3148 18.7543L33.5195 12.3718H38.226V27.1177H43.1371V7.90186H29.0861L28.7448 18.3117Z" fill="white"/>
<path d="M55.3456 13.7379H51.7994V7.90186H46.8882V27.1177H55.4138C60.77 27.1177 62.6782 23.6368 62.6782 20.3581C62.6782 16.1259 60.0165 13.7352 55.3456 13.7352M54.9716 22.8827H51.7994V18.0002H54.9716C56.6778 18.0002 57.6988 18.7516 57.6988 20.3554C57.6988 22.0958 56.7106 22.88 54.9716 22.88" fill="white"/>
<path d="M78.6732 7.45615V0.322266H73.762V7.45615C68.1356 7.93429 64.3491 11.9288 64.3491 17.4917C64.3491 23.0545 68.1356 27.0846 73.762 27.5627V34.8004H78.6732V27.5627C84.2996 27.1201 88.0861 23.09 88.0861 17.4917C88.0861 11.8933 84.2996 7.89877 78.6732 7.45615ZM73.762 22.9206C71.0348 22.5463 69.3286 20.4971 69.3286 17.4944C69.3286 14.4917 71.0348 12.4425 73.762 12.0682V22.9234V22.9206ZM78.6732 22.9206V12.0654C81.4004 12.4425 83.1066 14.4889 83.1066 17.4917C83.1066 20.4944 81.4004 22.5436 78.6732 22.9179" fill="white"/>
<path d="M106.505 21.2132V14.7624C106.505 10.052 103.505 7.08203 98.4572 7.08203C93.4095 7.08203 90.4775 10.2241 90.2373 13.5001H95.2167C95.386 12.7842 96.1367 11.5547 98.4572 11.5547C100.368 11.5547 101.594 12.4427 101.594 14.7624H96.7155C92.3503 14.7624 89.7568 17.0492 89.7568 20.8717C89.7568 24.6941 92.5933 27.5957 96.68 27.5957C99.6775 27.5957 101.343 26.1777 102.069 25.1039C102.716 26.4017 104.149 27.1176 106.025 27.1176H107.731V22.6804C106.844 22.6804 106.502 22.2706 106.502 21.2132M101.591 19.9509C101.591 22.1695 100.021 23.4318 97.9767 23.4318C96.2023 23.4318 94.8045 22.7842 94.8045 20.8717C94.8045 18.9591 96.3388 18.6859 97.6682 18.6859H101.591V19.9482V19.9509Z" fill="white"/>
<path d="M127.55 10.631H122.06V5.20478H134.782V0.322266H116.912V27.1173H127.553C133.452 27.1173 136.829 24.1829 136.829 18.7895C136.829 13.7048 133.452 10.631 127.553 10.631M127.315 22.2704H122.063V15.3059H127.315C130.043 15.3059 131.58 16.5682 131.58 18.7867C131.58 21.0053 130.045 22.2676 127.315 22.2676" fill="white"/>
<path d="M155.619 21.2132V14.7624C155.619 10.052 152.619 7.08203 147.571 7.08203C142.524 7.08203 139.592 10.2241 139.352 13.5001H144.331C144.5 12.7842 145.251 11.5547 147.571 11.5547C149.482 11.5547 150.708 12.4427 150.708 14.7624H145.83C141.465 14.7624 138.871 17.0492 138.871 20.8717C138.871 24.6941 141.708 27.5957 145.794 27.5957C148.792 27.5957 150.457 26.1777 151.183 25.1039C151.83 26.4017 153.263 27.1176 155.139 27.1176H156.845V22.6804C155.958 22.6804 155.617 22.2706 155.617 21.2132M150.705 19.9509C150.705 22.1695 149.136 23.4318 147.091 23.4318C145.317 23.4318 143.919 22.7842 143.919 20.8717C143.919 18.9591 145.453 18.6859 146.783 18.6859H150.705V19.9482V19.9509Z" fill="white"/>
<path d="M25.8457 34.5381H-0.416504V39.9998H25.8457V34.5381Z" fill="white"/>
<path d="M17.4892 4C16.7384 1.76503 15.8758 0 12.9192 0C9.96269 0 9.0427 1.75683 8.25647 4L0.129395 27.1175H5.51832L7.3938 21.623H17.7622L19.5012 27.1175H25.2313L17.4892 4ZM8.96353 16.9809L12.6462 6.02459H12.7827L16.2607 16.9809H8.9608H8.96353Z" fill="white"/>
</g>
</g>
<defs>
<clipPath id="clip0_952_7072">
<rect width="199" height="40" fill="white"/>
</clipPath>
</defs>
</svg>
