<svg width="231" height="48" viewBox="0 0 231 48" fill="none" xmlns="http://www.w3.org/2000/svg">
<g clip-path="url(#clip0_952_7055)">
<path d="M187.772 12.0662C186.865 12.9507 185.508 13.3336 183.721 13.3336C181.94 13.3336 180.546 12.9507 179.666 12.0662C178.759 11.2142 178.346 9.90368 178.346 8.21571V8H181.246V8.21571C181.246 9.12171 181.447 9.70414 181.786 10.0223L181.797 10.0331C182.141 10.3836 182.778 10.5562 183.716 10.5562C184.654 10.5562 185.259 10.3836 185.603 10.0331L185.614 10.0223C185.964 9.70414 186.192 9.11632 186.192 8.21571V8H189.092V8.21571C189.092 9.90907 188.641 11.2196 187.772 12.0662Z" fill="white"/>
<path fill-rule="evenodd" clip-rule="evenodd" d="M168.83 29.1025C169.11 28.7195 169.301 28.2397 169.434 27.6032L169.476 27.4253H172.848L172.811 27.6734C172.641 28.7627 172.328 29.6957 171.83 30.4507C171.342 31.2326 170.743 31.8475 170.001 32.3112C169.264 32.775 168.427 33.0933 167.493 33.3035C166.523 33.5139 165.49 33.584 164.36 33.584C162.955 33.584 161.715 33.4437 160.607 33.1256C159.494 32.8451 158.513 32.3112 157.739 31.5939C156.965 30.8713 156.371 29.9061 155.952 28.7088C155.533 27.5385 155.327 26.0662 155.327 24.3243C155.327 22.5448 155.528 21.0347 155.947 19.8321C156.36 18.6349 156.954 17.6373 157.728 16.8822L157.734 16.8768C158.502 16.1649 159.451 15.631 160.564 15.3129H160.57C161.673 15.0324 162.913 14.8599 164.286 14.8599C166.9 14.8599 168.989 15.5286 170.531 16.8822C172.048 18.252 172.806 20.3174 172.806 23.0517V25.5809H158.725C158.746 26.5733 158.905 27.3984 159.149 28.0131C159.409 28.671 159.796 29.1942 160.273 29.5824C160.75 29.9761 161.328 30.235 162.012 30.3697C162.712 30.5046 163.48 30.5747 164.35 30.5747C165.023 30.5747 165.622 30.5424 166.216 30.4398H166.226C166.773 30.3697 167.26 30.208 167.716 29.9761L167.721 29.9707H167.727C168.161 29.7819 168.506 29.4961 168.83 29.1025ZM160.405 18.8453C159.928 19.2011 159.541 19.6918 159.25 20.3497C158.979 20.9592 158.815 21.7249 158.762 22.7065H169.354C169.338 21.7897 169.206 21.0563 168.967 20.4469C168.707 19.7835 168.384 19.2982 167.944 18.9099C167.499 18.5486 166.985 18.2897 166.37 18.1225C165.739 17.9877 165.039 17.8853 164.281 17.8853C163.48 17.8853 162.781 17.9553 162.118 18.0902C161.471 18.2197 160.888 18.4838 160.405 18.8453Z" fill="white"/>
<path d="M196.705 27.2417C196.768 26.5244 196.837 25.6024 196.837 24.4374V15.3882H211.034V33.0768H207.626V18.4081H200.145V24.8528C200.145 27.63 199.737 29.7116 198.963 31.0384C198.168 32.4297 196.869 33.0768 195.114 33.0768H194.361V29.8843H194.573C194.998 29.8843 195.332 29.8142 195.591 29.6686L195.602 29.6632L195.607 29.6577C195.851 29.5499 196.095 29.2856 196.286 28.8974C196.471 28.5145 196.604 27.9913 196.705 27.2417Z" fill="white"/>
<path d="M149.85 27.1933C149.718 27.8945 149.49 28.4498 149.209 28.8705C148.886 29.3289 148.536 29.6525 148.122 29.9113C147.672 30.1701 147.189 30.3373 146.632 30.4345C146.039 30.5369 145.44 30.5693 144.766 30.5693C143.86 30.5693 143.065 30.4991 142.37 30.3319C141.654 30.1649 141.082 29.8737 140.642 29.426L140.637 29.4205C140.159 28.9676 139.804 28.3474 139.539 27.5439C139.279 26.7457 139.141 25.6671 139.141 24.3351C139.141 22.9706 139.274 21.8868 139.539 21.0185C139.804 20.1772 140.159 19.5247 140.637 19.077L140.642 19.0716C141.082 18.6241 141.654 18.3274 142.37 18.1657C143.065 17.9985 143.865 17.8961 144.766 17.8961C145.392 17.8961 145.991 17.9607 146.532 18.0308C147.051 18.1333 147.534 18.2951 147.984 18.554C148.398 18.8129 148.753 19.1418 149.076 19.5677C149.363 19.9884 149.591 20.5116 149.718 21.1749L149.75 21.3474H153.164L153.116 21.094C152.909 19.9399 152.597 18.9421 152.104 18.1495C151.616 17.3674 151.017 16.7257 150.317 16.2242L150.312 16.2188C149.612 15.755 148.769 15.3991 147.836 15.1888C146.871 14.9784 145.869 14.876 144.772 14.876C143.361 14.876 142.126 15.0486 141.023 15.329H141.018C139.905 15.6472 138.924 16.181 138.15 16.8929L138.145 16.8983C137.371 17.6533 136.777 18.6509 136.363 19.8482C135.945 21.0508 135.743 22.5609 135.743 24.3405C135.743 26.0825 135.95 27.5546 136.363 28.7249C136.777 29.9221 137.376 30.8874 138.15 31.6101C138.924 32.3274 139.905 32.8612 141.018 33.1417C142.126 33.4599 143.367 33.6001 144.772 33.6001C145.906 33.6001 146.94 33.4977 147.905 33.2873C148.843 33.077 149.681 32.721 150.418 32.2194C151.16 31.718 151.754 31.0762 152.247 30.2565C152.74 29.4637 153.052 28.466 153.227 27.2741L153.265 27.0261H149.893L149.85 27.1933Z" fill="white"/>
<path d="M227.586 27.1933L227.618 27.0154V27.0261H231L230.963 27.2741C230.788 28.466 230.475 29.4637 229.981 30.2565C229.489 31.0762 228.895 31.718 228.152 32.2194C227.416 32.721 226.579 33.077 225.64 33.2873C224.675 33.4977 223.642 33.6001 222.507 33.6001C221.102 33.6001 219.862 33.4599 218.753 33.1417C217.64 32.8612 216.659 32.3274 215.885 31.6101C215.111 30.8874 214.518 29.9221 214.099 28.7249C213.685 27.5546 213.479 26.0825 213.479 24.3405C213.479 22.5609 213.68 21.0508 214.099 19.8482C214.512 18.6509 215.106 17.6533 215.88 16.8983L215.885 16.8929C216.659 16.181 217.64 15.6472 218.753 15.329H218.759C219.862 15.0486 221.097 14.876 222.507 14.876C223.605 14.876 224.606 14.9784 225.571 15.1888C226.51 15.3991 227.347 15.755 228.047 16.2188L228.053 16.2242C228.752 16.7257 229.351 17.3674 229.838 18.1495C230.333 18.9421 230.645 19.9399 230.851 21.094L230.899 21.3474H227.485L227.453 21.1749C227.326 20.5116 227.099 19.9884 226.811 19.5677C226.489 19.1418 226.133 18.8129 225.719 18.554C225.268 18.2951 224.787 18.1333 224.267 18.0308C223.727 17.9607 223.127 17.8961 222.501 17.8961C221.601 17.8961 220.801 17.9985 220.106 18.1657C219.39 18.3274 218.817 18.6241 218.377 19.0716L218.372 19.077C217.895 19.5247 217.539 20.1772 217.274 21.0185C217.009 21.8868 216.877 22.9706 216.877 24.3351C216.877 25.6671 217.015 26.7457 217.274 27.5439C217.539 28.3474 217.895 28.9676 218.372 29.4205L218.377 29.426C218.817 29.8737 219.39 30.1649 220.106 30.3319C220.801 30.4991 221.595 30.5693 222.501 30.5693C223.175 30.5693 223.775 30.5369 224.368 30.4345C224.925 30.3373 225.406 30.1701 225.857 29.9113C226.271 29.6525 226.62 29.3289 226.945 28.8705C227.225 28.4498 227.453 27.8945 227.586 27.1933Z" fill="white"/>
<path fill-rule="evenodd" clip-rule="evenodd" d="M130.691 16.359C129.286 15.356 127.335 14.8706 124.901 14.8706C123.735 14.8706 122.67 14.9731 121.768 15.1888C120.83 15.3991 120.024 15.755 119.356 16.2242L119.351 16.2297C118.678 16.7366 118.147 17.3783 117.729 18.1657C117.304 18.9585 117.029 19.9506 116.891 21.1102L116.864 21.3529H120.173L120.199 21.1695C120.3 20.4954 120.459 19.9722 120.713 19.557L120.724 19.5462C120.947 19.1255 121.228 18.8074 121.604 18.554C121.98 18.3004 122.426 18.1334 122.977 18.0362C123.513 17.9662 124.181 17.9014 124.912 17.9014C126.593 17.9014 127.722 18.2087 128.416 18.721C129.09 19.2172 129.45 20.0694 129.45 21.342V22.5609C129.056 22.5561 128.695 22.5302 128.352 22.5055L128.22 22.4961H128.199C127.77 22.4961 127.335 22.4638 126.895 22.426H126.874C126.646 22.426 126.423 22.4206 126.184 22.4098H126.163C125.919 22.3991 125.66 22.3937 125.384 22.3937C125.129 22.3937 124.87 22.3882 124.589 22.3775H124.541C124.244 22.3666 123.926 22.3614 123.587 22.3614C122.113 22.3614 120.899 22.5338 119.955 22.8575H119.95C119.017 23.2079 118.275 23.634 117.739 24.1841C117.172 24.7287 116.811 25.3436 116.599 25.9961C116.387 26.6433 116.318 27.2905 116.318 27.8945C116.318 28.9082 116.456 29.8089 116.811 30.5423C117.13 31.2596 117.591 31.8743 118.2 32.3111C118.773 32.7804 119.478 33.1039 120.279 33.3143C121.084 33.53 121.954 33.6001 122.908 33.6001C124.355 33.6001 125.681 33.3521 126.868 32.7857C128.019 32.2356 128.883 31.3782 129.45 30.2295V33.0823H132.859V21.3313C132.854 19.0716 132.122 17.3729 130.691 16.359ZM129.445 26.8105C129.381 27.614 129.18 28.2612 128.872 28.7358C128.549 29.2265 128.135 29.6148 127.632 29.8682C127.107 30.1324 126.518 30.3319 125.861 30.4345C125.193 30.5369 124.562 30.5692 123.889 30.5692C122.405 30.5692 121.334 30.3644 120.671 29.9761C120.051 29.6148 119.727 28.946 119.727 27.8513C119.727 27.4846 119.759 27.134 119.881 26.8266L119.892 26.805C119.977 26.5084 120.183 26.201 120.528 25.953L120.538 25.9422C120.841 25.6994 121.339 25.4999 122.012 25.3274C122.675 25.1926 123.608 25.0902 124.748 25.0902C125.071 25.0902 125.405 25.0954 125.76 25.1063H125.808C126.179 25.117 126.571 25.1225 126.98 25.1225C127.738 25.1548 128.575 25.1871 129.45 25.2196V26.8105H129.445Z" fill="white"/>
<path fill-rule="evenodd" clip-rule="evenodd" d="M90.9402 24.1408C92.1648 24.2972 93.1615 24.6424 93.8877 25.2409C94.6246 25.915 95.0117 26.9128 95.0064 28.2718C95.0064 28.962 94.8632 29.5715 94.6511 30.1432C94.4337 30.731 94.0733 31.2433 93.575 31.6801C93.0819 32.1115 92.4829 32.4728 91.7777 32.7209H91.7724C91.0302 32.9744 90.1926 33.0768 89.2277 33.0768H79.314V15.3882H88.4855C89.5882 15.3882 90.5319 15.5284 91.3006 15.7765H91.3112C92.0746 16.0569 92.6789 16.3804 93.1773 16.8172C93.6703 17.254 94.0362 17.7288 94.2536 18.2841C94.4656 18.8235 94.5717 19.3681 94.5717 19.9505C94.5717 21.2286 94.2216 22.2587 93.559 22.9328L93.5537 22.9382C92.9069 23.5638 92.0376 23.9521 90.9402 24.0816V24.1408ZM88.2522 18.4081H82.7281V22.7009H88.8673C89.7897 22.7009 90.3888 22.4691 90.7015 22.0646C91.0143 21.6169 91.1999 21.11 91.1999 20.4683C91.1999 20.15 91.1415 19.8643 91.0727 19.5892C91.0196 19.3788 90.8871 19.2064 90.6909 19.0068C90.4894 18.8342 90.1926 18.7048 89.7897 18.57C89.4027 18.4729 88.8778 18.4081 88.2522 18.4081ZM88.5544 30.0568C89.5194 30.0568 90.2614 29.8896 90.8288 29.566C91.3536 29.2694 91.6346 28.7302 91.6346 27.8889C91.6346 27.2094 91.4437 26.6755 91.0727 26.2332C90.7281 25.8288 90.0017 25.586 88.8247 25.586H82.7281V30.0568H88.5544Z" fill="white"/>
<path d="M101.087 27.2902V15.3882H97.6729V33.0768H99.6768L110.163 21.3041V33.0768H113.572V15.3882H111.568L101.087 27.2902Z" fill="white"/>
<path fill-rule="evenodd" clip-rule="evenodd" d="M67.9477 14.8706C70.3811 14.8706 72.332 15.356 73.7369 16.359C75.163 17.3729 75.8946 19.0716 75.8946 21.3313V33.077H72.4858V30.2241C71.9185 31.3729 71.0597 32.2303 69.9039 32.7804C68.7164 33.3466 67.391 33.5946 65.9437 33.5946C64.9895 33.5946 64.12 33.5246 63.3142 33.3089C62.5137 33.0985 61.8086 32.775 61.236 32.3058C60.6264 31.8689 60.1651 31.2542 59.847 30.5369C59.4918 29.8034 59.354 28.9028 59.354 27.889C59.354 27.285 59.4229 26.6378 59.635 25.9908C59.847 25.3382 60.2075 24.7234 60.7748 24.1786C61.3155 23.634 62.0578 23.2079 62.9802 22.8575H62.9855C63.9292 22.5338 65.1432 22.3614 66.617 22.3614C66.9563 22.3614 67.2744 22.3666 67.5713 22.3775H67.619C67.9 22.3882 68.1598 22.3937 68.4142 22.3937C68.6899 22.3937 68.9497 22.3991 69.1935 22.4098H69.2148C69.4533 22.4206 69.676 22.426 69.9039 22.426H69.9251C70.3705 22.4638 70.8052 22.4961 71.2346 22.4961H71.2558L71.3875 22.5055C71.7301 22.5302 72.0913 22.5561 72.4858 22.5609V21.3313C72.4858 20.0585 72.1253 19.2065 71.452 18.7103C70.7575 18.198 69.6283 17.8906 67.9477 17.8906C67.2161 17.8906 66.5481 17.9553 66.0127 18.0254C65.456 18.1225 65.016 18.2897 64.6396 18.5431C64.2632 18.7966 63.9822 19.1148 63.7595 19.5354L63.7542 19.5409V19.5516C63.5051 19.9668 63.3407 20.49 63.24 21.1641L63.2135 21.3474H59.9054L59.9319 21.1047C60.0697 19.9454 60.3454 18.953 60.7695 18.1602C61.1883 17.3729 61.7185 16.7311 62.3918 16.2242L62.397 16.2188C63.065 15.7496 63.8709 15.3991 64.8145 15.1888C65.7158 14.9731 66.7814 14.8706 67.9477 14.8706ZM71.9132 28.7358C72.2207 28.2612 72.4168 27.614 72.4858 26.8105H72.4911V25.2196C71.6163 25.1871 70.7734 25.1548 70.0206 25.1225C69.6124 25.1225 69.22 25.117 68.8489 25.1063H68.8012C68.446 25.0954 68.112 25.0902 67.7886 25.0902C66.6488 25.0902 65.7158 25.1926 65.0531 25.3274C64.3798 25.4999 63.8815 25.6994 63.5793 25.9422L63.5687 25.953C63.2241 26.201 63.0173 26.5084 62.9325 26.805L62.9219 26.8266C62.8 27.134 62.7682 27.4846 62.7682 27.8513C62.7682 28.946 63.0916 29.6148 63.7118 29.9761C64.3745 30.3644 65.4454 30.5692 66.9298 30.5692C67.6031 30.5692 68.234 30.5369 68.902 30.4345C69.5593 30.3319 70.1478 30.1324 70.6727 29.8682C71.1763 29.6148 71.5951 29.2265 71.9132 28.7358Z" fill="white"/>
<path d="M179.183 27.2902V15.3882H175.774V33.0768H177.773L188.259 21.3041V33.0768H191.668V15.3882H189.664L179.183 27.2902Z" fill="white"/>
</g>
<path d="M20.102 25.7827C19.6568 25.7827 19.2959 26.1427 19.2959 26.5867V27.0002L19.2969 27.0202C19.3808 28.6936 20.6464 30.3694 22.8002 30.5346L22.8312 30.537H23.2564C23.7016 30.537 24.0625 30.177 24.0625 29.733C24.0625 29.289 23.7016 28.929 23.2564 28.929H22.895C21.6571 28.8206 20.9634 27.8925 20.9081 26.9582V26.5867C20.9081 26.1427 20.5471 25.7827 20.102 25.7827Z" fill="white"/>
<path fill-rule="evenodd" clip-rule="evenodd" d="M22.3128 12.7908C18.1462 12.9738 14.9251 16.3852 14.716 20.5397C14.6111 22.6234 14.5293 24.4866 14.5293 26.2186C14.5293 27.834 14.6005 29.4514 14.6952 31.3104C14.9057 35.4444 18.1215 38.8248 22.2674 39.0103C22.8953 39.0384 23.5038 39.0551 24.0627 39.0551C24.6389 39.0551 25.268 39.0373 25.9168 39.0076C30.0358 38.8192 33.2395 35.4784 33.4426 31.3709C33.5309 29.5826 33.5959 27.9845 33.5959 26.2186C33.5959 24.2461 33.5237 22.4264 33.4278 20.461C33.2269 16.3408 30.0209 12.9813 25.8892 12.7943C25.2502 12.7653 24.6307 12.748 24.0627 12.748C23.5173 12.748 22.9247 12.764 22.3128 12.7908ZM17.033 21.0162C17.1911 17.8495 19.6018 15.2631 22.7068 15.1204C23.1812 15.0986 23.6408 15.0856 24.0627 15.0856C24.5056 15.0856 24.99 15.0999 25.4894 15.1237C28.562 15.2701 30.9569 17.808 31.1056 20.9421C31.1197 21.2408 31.133 21.4954 31.1451 21.7261C31.186 22.5085 31.2126 23.0212 31.2126 24.0839C31.2126 25.1322 31.1834 25.7288 31.1396 26.6261C31.1326 26.7703 31.125 26.9223 31.1173 27.0852C30.9684 30.2071 28.5761 32.7271 25.5154 32.8748C25.0069 32.8994 24.5133 32.9141 24.0627 32.9141C23.6284 32.9141 23.1542 32.9004 22.6651 32.8775C19.5792 32.7325 17.1736 30.1749 17.0167 27.0276C17.0064 26.8221 16.9966 26.6341 16.9876 26.4578C16.9427 25.5914 16.9127 25.0122 16.9127 24.0839C16.9127 23.192 16.9403 22.7024 16.9822 21.9588C16.9976 21.6887 17.0146 21.3848 17.033 21.0162Z" fill="white"/>
<path fill-rule="evenodd" clip-rule="evenodd" d="M13.8349 3.2002H34.2903C38.7799 3.2002 39.9404 3.66484 41.0615 4.2629C42.2719 4.90855 43.2041 5.83824 43.8513 7.04549C44.451 8.16379 44.9168 9.32111 44.9168 13.799V14.5043C44.9168 14.8286 44.6562 15.0926 44.3313 15.1063C44.2314 15.1105 44.1303 15.1153 44.0284 15.1207C41.3115 15.2634 39.2021 17.8498 39.0639 21.0165C39.0478 21.3828 39.0329 21.6855 39.0196 21.9544L39.0194 21.9576C38.9827 22.7013 38.9585 23.1924 38.9585 24.0842C38.9585 25.0125 38.9848 25.5908 39.0239 26.457C39.0319 26.6336 39.0406 26.8221 39.0496 27.0279C39.1867 30.1752 41.2916 32.7328 43.992 32.8778C44.1061 32.8839 44.2195 32.8893 44.3313 32.8941C44.6562 32.9079 44.9168 33.1719 44.9168 33.496V34.2013C44.9168 38.6792 44.451 39.8367 43.8513 40.9549C43.2041 42.1621 42.2719 43.0919 41.0615 43.7375C39.9404 44.3356 38.7799 44.8002 34.2903 44.8002H13.8349C9.34536 44.8002 8.18502 44.3356 7.06381 43.7375C5.85341 43.0919 4.9213 42.1621 4.27397 40.9549C3.67435 39.8367 3.2085 38.6792 3.2085 34.2013V33.496C3.2085 33.1719 3.46914 32.9079 3.79397 32.8941C3.92166 32.8887 4.0511 32.8823 4.18165 32.8751C6.85982 32.7274 8.95318 30.2074 9.08336 27.0855C9.09003 26.9252 9.09645 26.7754 9.10254 26.6333L9.10285 26.6261C9.14128 25.7288 9.16684 25.1325 9.16684 24.0842C9.16684 23.0215 9.1434 22.5084 9.10767 21.7261C9.09714 21.4952 9.08552 21.2412 9.07312 20.9424C8.94307 17.8084 6.84755 15.2704 4.15896 15.124C4.0361 15.1173 3.91427 15.1114 3.79397 15.1063C3.46916 15.0926 3.2085 14.8286 3.2085 14.5043V13.799C3.2085 9.32111 3.67435 8.16379 4.27397 7.04549C4.9213 5.83824 5.85341 4.90855 7.06381 4.2629C8.18502 3.66484 9.34536 3.2002 13.8349 3.2002ZM22.222 10.7329C16.9175 10.9658 12.912 15.2954 12.6531 20.4367C12.5482 22.5204 12.4638 24.4296 12.4638 26.2188C12.4638 27.8909 12.5375 29.5536 12.6324 31.4152C12.8936 36.5434 16.9009 40.8328 22.175 41.0687C22.8241 41.0976 23.4648 41.1156 24.0627 41.1156C24.6793 41.1156 25.3413 41.0965 26.0116 41.066C31.2474 40.8263 35.2528 36.5869 35.5057 31.4725C35.5945 29.6746 35.6616 28.0364 35.6616 26.2188C35.6616 24.1959 35.5873 22.3368 35.4911 20.3612C35.2413 15.2385 31.2376 10.9743 25.983 10.7364C25.3227 10.7065 24.6706 10.6881 24.0627 10.6881C23.4791 10.6881 22.8549 10.7051 22.222 10.7329Z" fill="white"/>
<defs>
<clipPath id="clip0_952_7055">
<rect width="171.646" height="48" fill="white" transform="translate(59.354)"/>
</clipPath>
</defs>
</svg>
