<svg width="241" height="48" viewBox="0 0 241 48" fill="none" xmlns="http://www.w3.org/2000/svg">
<g clip-path="url(#clip0_952_7018)">
<path d="M23.8497 17.6316C23.8497 21.4186 20.776 24.4888 16.981 24.4888C13.186 24.4888 10.1123 21.4186 10.1123 17.6316C10.1123 13.8446 13.186 10.7744 16.981 10.7744C20.776 10.7744 23.8497 13.8446 23.8497 17.6316Z" fill="white"/>
<path d="M1.22718 22.4706L8.18319 18.3427C8.72011 18.0226 8.72011 17.2389 8.18319 16.9218L1.22718 12.7939C0.684389 12.4709 0 12.8687 0 13.5058V21.7586C0 22.3958 0.684389 22.7906 1.22718 22.4706Z" fill="#FBAC00"/>
<path fill-rule="evenodd" clip-rule="evenodd" d="M20.2801 5.30235C17.5482 4.57361 14.6513 4.76976 12.043 5.86007C9.61096 6.87669 7.55775 8.61715 6.15902 10.8375C5.99074 11.1047 5.64241 11.2015 5.36754 11.0457L2.38143 9.35209C2.10656 9.19619 2.00954 8.84674 2.17467 8.57765C4.07597 5.4789 6.908 3.05052 10.2744 1.64332C13.8171 0.162444 17.7517 -0.103958 21.4622 0.885819C25.1727 1.87559 28.4498 4.06568 30.7804 7.11326C33.1112 10.1608 34.3637 13.8939 34.3425 17.7281C34.321 21.5623 33.027 25.2813 30.6624 28.3028C28.2981 31.3244 24.9968 33.4778 21.2755 34.4265C17.5542 35.3749 13.6229 35.0651 10.0968 33.5449C6.74629 32.1004 3.94149 29.6408 2.07479 26.5212C1.91267 26.2502 2.01357 25.9019 2.29016 25.749L5.29494 24.0887C5.57154 23.9359 5.91877 24.0366 6.08406 24.3056C7.45797 26.5414 9.49169 28.3045 11.9123 29.3481C14.5083 30.4673 17.4028 30.6956 20.1427 29.9971C22.8825 29.2987 25.3131 27.7131 27.054 25.4885C28.7949 23.2638 29.7477 20.5257 29.7634 17.7027C29.7792 14.8797 28.8568 12.1312 27.1408 9.88739C25.4249 7.64355 23.0121 6.03108 20.2801 5.30235Z" fill="white"/>
<path fill-rule="evenodd" clip-rule="evenodd" d="M176.359 34.8936C173.465 34.8936 171.121 37.2369 171.121 40.1259C171.121 43.0148 173.465 45.3582 176.359 45.3582C179.253 45.3582 181.597 43.0178 181.597 40.1259C181.597 37.2339 179.253 34.8936 176.359 34.8936ZM176.359 43.4083C174.543 43.4083 173.071 41.9385 173.071 40.1259C173.071 38.3132 174.543 36.8404 176.359 36.8404C178.175 36.8404 179.647 38.3102 179.647 40.1259C179.647 41.9415 178.175 43.4083 176.359 43.4083Z" fill="white"/>
<path fill-rule="evenodd" clip-rule="evenodd" d="M233.728 34.8936V45.3582H235.672V36.8404H240.716V34.8936H233.728Z" fill="white"/>
<path d="M186.22 34.8936L182.759 45.3582H185.055L187.785 36.8374H188.881L191.613 45.3582H193.91L190.449 34.8936H186.217H186.22Z" fill="white"/>
<path d="M159.85 45.3588L163.529 39.9178L159.85 34.8972H162.147L164.903 38.5524L167.618 34.8972H169.914L166.25 39.891L169.914 45.3618H167.618L164.861 41.2565L162.191 45.3618H159.85V45.3588Z" fill="white"/>
<path d="M205.625 43.5313V34.8972H197.643V36.5459C197.643 40.4485 197.135 41.6172 196.189 43.5313H195.078V47.8632H197.046V45.3618H205.106V47.8632H207.05V43.5313H205.625ZM203.607 43.5342H198.33C199.115 41.9183 199.572 40.7795 199.572 38.0813V36.7486H203.607V43.5372V43.5342Z" fill="white"/>
<path d="M209.547 45.3582V34.8936H211.581V42.2993L216.87 34.8936H219.238V45.3582H217.279V37.4605L211.802 45.3582H209.547Z" fill="white"/>
<path d="M221.738 45.3582V34.8936H223.754V39.142H229.219V34.8936H231.231V45.3582H229.219V41.0441H223.754V45.3582H221.738Z" fill="white"/>
<path fill-rule="evenodd" clip-rule="evenodd" d="M203.176 6.99097C208.967 6.99097 213.661 11.6777 213.661 17.4585C213.661 23.2394 208.967 27.9261 203.176 27.9261C197.385 27.9261 192.691 23.2394 192.691 17.4585C192.691 11.6777 197.385 6.99097 203.176 6.99097ZM203.179 10.4792C207.034 10.4792 210.164 13.6007 210.164 17.4496V17.4645C210.164 21.3164 207.037 24.4349 203.179 24.4349C199.321 24.4349 196.197 21.3164 196.197 17.4645V17.4496C196.197 13.5977 199.324 10.4792 203.179 10.4792Z" fill="white"/>
<path fill-rule="evenodd" clip-rule="evenodd" d="M97.48 6.99097V10.4851H104.468V27.9321H107.962V10.4851H114.956V6.99097H97.4771H97.48Z" fill="white"/>
<path fill-rule="evenodd" clip-rule="evenodd" d="M132.421 10.4821V6.99097H118.442V27.9291H132.421V24.4409H121.939V19.1013H132.421V15.8248H121.939V10.4851H132.421V10.4821Z" fill="white"/>
<path fill-rule="evenodd" clip-rule="evenodd" d="M172.505 10.4821V6.99097H158.522V27.9291H172.505V24.4409H162.017V19.1013H172.505V15.8248H162.017V10.4851H172.505V10.4821Z" fill="white"/>
<path d="M95.0712 17.4981C95.0712 18.7622 94.0469 19.7818 92.7837 19.7818C91.5204 19.7818 90.4961 18.7592 90.4961 17.4981C90.4961 16.237 91.5204 15.2144 92.7837 15.2144C94.0469 15.2144 95.0712 16.237 95.0712 17.4981Z" fill="white"/>
<path fill-rule="evenodd" clip-rule="evenodd" d="M192.692 6.99097H188.511L182.093 15.7294H179.474V6.99097H175.995V27.9291H179.474V19.1907H182.093L188.511 27.9291H192.692L185.193 17.4585L192.692 6.99395V6.99097Z" fill="white"/>
<path d="M141.674 6.99097L134.918 27.9291H139.046L144.487 10.4792H146.458L151.902 27.9291H156.029L149.277 6.99097H141.674Z" fill="white"/>
<path d="M216.262 6.99097V27.9291H219.756V10.4792H220.837L225.412 27.9291H231.579L236.16 10.4792H237.235V27.9291H240.733V6.99097H233.273L228.5 25.4486L223.728 6.99097H216.262Z" fill="white"/>
<path fill-rule="evenodd" clip-rule="evenodd" d="M71.3833 6.99097H74.8774V7.00611H80.0118V7.01208C83.8672 7.01208 86.9999 10.1395 86.9999 13.9885C86.9999 17.8374 83.8702 20.9649 80.0118 20.9649H74.8774V27.9291H71.3833V6.99097ZM74.8774 17.4856H80.0029C81.938 17.4856 83.5089 15.9174 83.5089 13.9855C83.5089 12.0536 81.938 10.4854 80.0029 10.4854H74.8774V17.4856Z" fill="white"/>
<path fill-rule="evenodd" clip-rule="evenodd" d="M54.9446 6.99131H58.4267V6.98535C64.2023 6.98535 68.882 11.6572 68.882 17.4231C68.882 23.1891 64.2023 27.8609 58.4267 27.8609H54.9446C50.3844 27.8609 46.5081 24.9481 45.0776 20.8875H48.8942C50.0977 22.9774 52.3554 24.3816 54.9416 24.3816H58.367C61.5785 24.3816 64.2851 22.211 65.0938 19.2599H53.8128V15.6197H65.1048C64.3099 12.6486 61.5955 10.4586 58.367 10.4586H54.9416C52.3524 10.4586 50.0947 11.8658 48.8912 13.9558H45.0806C46.5141 9.89815 50.3904 6.99131 54.9446 6.99131Z" fill="white"/>
</g>
<defs>
<clipPath id="clip0_952_7018">
<rect width="241" height="48" fill="white"/>
</clipPath>
</defs>
</svg>
