<svg width="216" height="56" viewBox="0 0 216 56" fill="none" xmlns="http://www.w3.org/2000/svg">
<g style="mix-blend-mode:luminosity">
<g clip-path="url(#clip0_952_7006)">
<path d="M72.883 30.7979C73.7141 30.7979 74.5193 30.7979 75.3244 30.7979C76.1556 30.7979 77.0128 30.7979 77.8699 30.7979C77.8699 31.0806 77.8958 31.2347 77.8699 31.3633C77.0907 34.0359 74.9868 35.8605 71.9739 35.6549C69.4284 35.475 67.5064 34.2158 66.6492 31.8259C66.3895 31.1063 66.2076 30.361 66.1037 29.6157C65.844 27.4315 65.9998 25.2985 67.0128 23.294C68.805 19.7219 73.4803 19.1051 75.9478 21.3923C76.5972 22.009 77.0647 22.8314 77.6622 23.6281C79.2726 23.808 81.1427 23.7566 81.9219 23.4481C81.4543 20.3129 79.5583 18.3084 76.6751 17.1006C74.9609 16.3811 73.1686 16.2269 71.3245 16.3554C67.1167 16.6124 64.0778 18.5911 62.3894 22.4716C61.1947 25.2471 61.0908 28.1253 61.6362 31.0548C62.5453 35.8862 66.3895 39.6895 71.9479 39.4326C74.2075 39.3298 76.1037 38.5845 77.688 37.0169C77.9219 36.7599 78.2076 36.5544 78.5193 36.2459C78.7011 37.1968 78.857 37.9935 79.0127 38.8672C79.9997 38.8672 80.9088 38.8672 81.9219 38.8672C81.9219 34.9354 81.9219 31.0806 81.9219 27.1744C78.8829 27.1744 75.8959 27.1744 72.857 27.1744C72.883 28.4079 72.883 29.5387 72.883 30.7979Z" fill="white"/>
<path d="M167.663 18.8224C166.052 17.4605 164.13 16.9722 162.052 16.9465C159.014 16.9207 156 16.9465 152.961 16.9465C152.702 16.9465 152.416 16.9979 152.156 17.0493C152.156 24.3476 152.156 31.5688 152.156 38.8929C152.39 38.9443 152.494 38.97 152.598 38.97C155.818 38.97 159.066 38.9957 162.286 38.9443C162.988 38.9443 163.714 38.7644 164.416 38.5589C167.351 37.7108 169.065 35.6292 170.053 32.9052C171.169 29.8214 171.195 26.6348 170.442 23.4739C170.001 21.675 169.143 20.056 167.663 18.8224ZM165.715 31.4918C165.43 32.3141 164.961 33.0851 164.442 33.779C163.792 34.6269 162.831 35.1153 161.741 35.1409C160.156 35.1667 158.598 35.1667 157.013 35.1409C156.91 35.1409 156.806 35.0639 156.624 35.0124C156.624 30.2839 156.624 25.5554 156.624 20.7755C156.883 20.7499 157.065 20.6985 157.247 20.6985C158.702 20.6985 160.156 20.6727 161.611 20.6985C163.325 20.7499 164.65 21.4951 165.376 23.0627C165.715 23.7822 165.974 24.5532 166.079 25.3242C166.39 27.4315 166.441 29.513 165.715 31.4918Z" fill="white"/>
<path d="M129.894 31.9287C129.843 30.7722 129.791 29.7443 129.712 28.7421C129.687 28.3052 129.557 27.8684 129.427 27.4572C128.492 24.2963 126.284 22.5745 123.038 22.266C119.038 21.8806 115.609 23.7051 114.57 28.0739C114.103 30.104 114.232 32.1343 114.778 34.113C115.505 36.7856 117.22 38.456 119.973 39.0728C121.479 39.4069 123.012 39.5098 124.544 39.1242C127.167 38.456 128.934 36.8884 129.687 34.2159C128.207 34.2159 126.803 34.2159 125.427 34.2159C124.336 35.8863 122.622 36.4259 120.804 35.6806C119.349 35.0896 118.518 33.5991 118.83 31.9287C122.44 31.9287 126.103 31.9287 129.894 31.9287ZM121.895 25.7354C123.947 25.684 125.219 26.8404 125.427 29.1275C123.167 29.1275 121.012 29.1275 118.856 29.1275C118.934 26.9689 120.025 25.7868 121.895 25.7354Z" fill="white"/>
<path d="M112.674 31.9284C112.622 30.772 112.57 29.744 112.492 28.7161C112.466 28.2791 112.336 27.8423 112.206 27.4312C111.271 24.3217 109.142 22.6255 105.921 22.2915C101.973 21.8802 98.4403 23.6278 97.3754 27.9966C96.8818 30.001 97.0117 32.0312 97.5312 34.0356C98.2325 36.7083 99.8948 38.4301 102.648 39.0726C104.207 39.4323 105.765 39.5351 107.323 39.1496C109.947 38.4814 111.687 36.9138 112.466 34.1898C111.687 34.1898 110.986 34.1898 110.31 34.1898C109.583 34.1898 108.856 34.1898 108.181 34.1898C107.142 36.1686 105.245 36.1943 103.765 35.7832C102.258 35.3463 101.401 33.9071 101.505 31.9284C105.219 31.9284 108.882 31.9284 112.674 31.9284ZM104.882 25.735C106.83 25.735 108.181 27.1227 108.129 29.1272C105.973 29.1272 103.817 29.1272 101.661 29.1272C101.635 26.9686 102.83 25.735 104.882 25.735Z" fill="white"/>
<path d="M215.817 38.2763C215.298 37.8651 215.168 37.2741 215.116 36.683C215.064 36.1947 215.038 35.7321 215.038 35.2439C215.038 32.3913 215.012 29.5645 215.038 26.7121C215.038 25.1187 214.285 23.9623 212.908 23.1914C212.519 22.9857 212.103 22.7802 211.688 22.6774C209.428 22.035 207.142 22.035 204.882 22.703C202.675 23.3713 201.247 25.4528 201.298 27.8427C202.57 27.8427 203.844 27.8427 205.22 27.8427C205.818 25.2986 208.103 25.3244 209.792 25.8897C210.545 26.1467 210.934 26.8405 210.882 27.5858C210.83 28.2796 210.571 28.5623 209.61 28.7936C208.909 28.9478 208.181 29.0249 207.454 29.1534C206.103 29.359 204.727 29.5131 203.453 30.0529C202.181 30.5925 201.298 31.492 200.935 32.7769C200.726 33.4964 200.674 34.2674 200.674 35.0126C200.701 36.9657 201.948 38.5847 203.817 39.0987C205.973 39.664 207.973 39.3556 209.792 38.0193C210.181 37.7366 210.545 37.454 210.934 37.1198C211.09 37.7623 211.246 38.302 211.402 38.8674C212.96 38.8674 214.44 38.8674 215.999 38.8674C215.921 38.6361 215.921 38.3791 215.817 38.2763ZM210.857 33.4193C210.571 35.6293 207.948 36.7345 206.285 36.2719C204.857 35.8864 204.441 33.7534 205.609 32.7512C206.077 32.3657 206.726 32.1601 207.35 32.006C208.467 31.6975 209.61 31.4662 210.882 31.1835C210.857 31.9288 210.934 32.674 210.857 33.4193Z" fill="white"/>
<path d="M187.428 36.6062C187.376 36.1693 187.349 35.7325 187.349 35.2956C187.349 32.4431 187.324 29.6163 187.349 26.7637C187.349 25.7101 187.038 24.785 186.311 24.0397C185.662 23.3715 184.83 22.9089 183.921 22.6776C181.87 22.1124 179.792 22.061 177.714 22.6006C175.116 23.2688 173.687 25.0933 173.558 27.8687C174.882 27.8687 176.18 27.8687 177.48 27.8687C177.532 27.766 177.584 27.6888 177.609 27.6118C178.337 25.7615 180.493 24.9905 182.259 25.9928C182.908 26.3526 183.22 26.9179 183.168 27.6888C183.116 28.4341 182.571 28.6912 181.947 28.8196C181.246 28.9739 180.518 29.0509 179.817 29.2051C178.597 29.4364 177.35 29.6163 176.155 29.976C174.753 30.3872 173.74 31.3123 173.298 32.7C173.064 33.4453 172.986 34.2676 172.986 35.0643C173.012 37.223 174.414 38.8677 176.544 39.3046C178.7 39.7414 180.623 39.3046 182.337 37.9425C182.622 37.7112 182.934 37.5057 183.246 37.2744C183.427 37.9425 183.557 38.5079 183.714 39.0219C185.298 39.0219 186.752 39.0219 188.337 39.0219C188.233 38.7136 188.233 38.5079 188.129 38.4309C187.609 37.8655 187.506 37.2487 187.428 36.6062ZM183.193 33.3168C183.065 34.9102 181.479 36.2721 179.662 36.3235C179.194 36.3493 178.674 36.2979 178.258 36.0923C176.96 35.424 176.856 33.4197 178.103 32.5716C178.545 32.2632 179.116 32.109 179.662 31.9805C180.778 31.6979 181.921 31.4666 183.193 31.1581C183.193 31.9034 183.246 32.5972 183.193 33.3168Z" fill="white"/>
<path d="M147.35 25.6575C146.051 21.7514 140.18 21.1088 137.74 24.0385C137.505 24.3212 137.246 24.6039 136.83 25.1178C136.83 24.1156 136.83 23.4218 136.83 22.6765C135.48 22.6765 134.233 22.6765 132.856 22.6765C132.856 28.0989 132.856 33.4441 132.856 38.7894C134.103 38.995 136.206 38.9692 137.089 38.738C137.089 38.3526 137.089 37.9413 137.089 37.5559C137.089 34.9604 137.064 32.3648 137.116 29.7693C137.142 29.024 137.271 28.253 137.558 27.5849C138.155 26.1972 139.791 25.5034 141.298 25.8631C142.752 26.1972 143.376 27.0709 143.401 28.7927C143.401 29.0754 143.401 29.3581 143.401 29.6407C143.401 32.4419 143.401 35.2431 143.401 38.0441C143.401 38.3526 143.453 38.6609 143.48 38.9178C144.933 38.9178 146.285 38.9178 147.609 38.9178C147.661 38.7637 147.687 38.6866 147.687 38.6095C147.687 34.9346 147.714 31.2598 147.687 27.5849C147.714 26.9167 147.557 26.2743 147.35 25.6575Z" fill="white"/>
<path d="M197.144 35.8606C196.468 35.8092 196.208 35.5779 196.104 34.9097C196.052 34.627 196.079 34.3443 196.079 34.0617C196.079 31.6717 196.079 29.2818 196.079 26.8661C196.079 26.5064 196.104 26.1723 196.13 25.6583C197.013 25.6583 197.845 25.6583 198.676 25.6583C198.779 24.5789 198.779 23.6282 198.701 22.5744C197.793 22.5744 196.962 22.5744 196.027 22.5744C196.027 21.0583 196.027 19.6706 196.027 18.2314C195.248 18.2314 194.598 18.2314 193.974 18.2314C193.298 18.2314 192.649 18.2571 191.845 18.2829C191.845 19.799 191.845 21.1867 191.845 22.5744C191.04 22.6002 190.364 22.6516 189.611 22.6773C189.611 23.6796 189.481 24.6047 189.715 25.5811C190.442 25.6325 191.117 25.6583 191.818 25.7097C191.845 26.0951 191.896 26.4036 191.896 26.7119C191.896 27.8683 191.896 29.0248 191.896 30.1812C191.896 32.1857 191.871 34.1644 191.923 36.1689C191.975 37.7365 192.754 38.6102 194.286 38.8673C195.169 39.0215 196.052 39.0472 196.935 39.0728C197.533 39.0986 198.105 38.9701 198.728 38.9187C198.754 37.8137 198.858 36.8371 198.649 35.8092C198.105 35.8862 197.636 35.912 197.144 35.8606Z" fill="white"/>
<path d="M93.3521 22.4981C91.9234 22.9093 91.2742 24.1685 90.2872 25.4792C90.2872 24.3741 90.2872 23.5517 90.2872 22.6524C88.8586 22.678 87.5599 22.601 86.2871 22.678C86.2871 28.1774 86.2871 33.4971 86.2871 38.868C87.7157 38.868 89.0664 38.868 90.521 38.868C90.521 37.8915 90.521 36.992 90.521 36.0669C90.521 34.1138 90.4949 32.1608 90.521 30.1819C90.5469 28.0747 91.5079 26.9183 93.6118 26.5328C94.0534 26.4557 94.4949 26.4814 94.9365 26.4557C95.1962 26.43 95.456 26.4043 95.7417 26.3786C95.7417 24.9909 95.7417 23.6802 95.7417 22.2925C94.8066 22.0612 94.0793 22.2925 93.3521 22.4981Z" fill="white"/>
<path fill-rule="evenodd" clip-rule="evenodd" d="M41.4022 25.5738C39.8087 22.7147 37.976 20.0049 35.1383 16.9068C32.5863 14.1111 30.0103 11.8641 27.4344 10.1173C33.4365 7.62758 38.6545 7.73583 41.45 10.5315C44.4187 13.4804 44.3553 19.1538 41.4064 25.5738H41.4022ZM41.4697 45.4647C38.5236 48.4134 32.8692 48.3239 26.4714 45.42C29.353 43.5425 32.2794 41.12 34.8962 38.3916C38.1055 35.0732 39.9608 32.6919 41.4247 30.4449C44.3511 36.8425 44.4144 42.5197 41.4697 45.4647ZM6.54283 45.4647C3.39991 42.3219 3.66116 36.0998 7.17739 29.1795C9.07739 25.4245 11.3467 22.5429 14.3814 19.1165C17.1099 16.0372 20.167 13.3534 22.8957 11.5841V44.7929C15.9529 48.35 9.68956 48.615 6.54663 45.4685L6.54283 45.4647ZM6.54283 10.5315C8.00605 9.06843 10.1449 8.348 12.7204 8.348C15.1429 8.348 17.9386 9.02352 20.9285 10.3114C18.2448 12.1441 15.3407 14.7419 12.7652 17.6683C10.3203 20.4191 8.35697 22.864 6.65488 25.6821C3.66497 19.2211 3.57544 13.4766 6.54663 10.5315H6.54283ZM40.2901 28.1083C38.8037 30.6613 36.9935 33.0875 33.3253 36.8836C30.7493 39.5673 27.8904 41.9039 25.0941 43.6955V11.2072C27.8904 12.9091 30.7268 15.2906 33.5406 18.37C36.6613 21.7965 38.5391 24.7228 40.2409 27.9776V28L40.2859 28.1083H40.2901ZM45.1352 28C49.1286 19.639 48.954 11.823 44.5679 7.43347C40.1818 3.04407 32.3878 2.87233 24.0042 6.86619C15.6431 2.87233 7.83066 3.06645 3.44101 7.43347C-0.944839 11.823 -1.14261 19.6166 2.8736 28C-1.12037 36.3611 -0.944839 44.177 3.44101 48.5666C5.73289 50.8585 8.96534 51.993 12.7166 51.993C16.1432 51.993 20.0065 51.0345 24.0005 49.1342C32.361 53.1276 40.1747 52.9559 44.5637 48.5666C48.9315 44.177 49.1243 36.3611 45.1309 28H45.1352Z" fill="white"/>
</g>
</g>
<defs>
<clipPath id="clip0_952_7006">
<rect width="216" height="48" fill="white" transform="translate(0 4)"/>
</clipPath>
</defs>
</svg>
