<svg width="131" height="56" viewBox="0 0 131 56" fill="none" xmlns="http://www.w3.org/2000/svg">
<g clip-path="url(#clip0_952_7040)">
<mask id="mask0_952_7040" style="mask-type:luminance" maskUnits="userSpaceOnUse" x="0" y="4" width="131" height="48">
<path d="M131 4H0V52H131V4Z" fill="white"/>
</mask>
<g mask="url(#mask0_952_7040)">
<path d="M99.2041 28.4743V39.0325H103.531V29.1236C103.531 24.7069 109.546 24.7069 109.546 24.7069V20.4148C109.546 20.4148 107.867 20.4929 106.539 20.7925C102.774 21.6353 99.2041 23.4957 99.2041 28.4836V28.4743Z" fill="white"/>
<path d="M66.5549 20.1915C68.2432 20.1915 70.3489 21.1403 71.4931 22.8166C72.6763 21.2966 74.6367 20.2584 77.0517 20.2212C80.1171 20.1822 83.911 22.091 83.911 27.8064V39.0045H79.5841V27.8064C79.5841 25.8975 78.207 24.5319 76.1405 24.5319C74.0739 24.5319 72.695 25.8975 72.695 27.8064V39.0045H68.3681V27.8064C68.3681 25.8975 66.991 24.5319 64.9244 24.5319C62.8579 24.5319 61.4416 25.8975 61.4416 27.8064V39.0045H56.8911V20.744H61.4416V22.5747C62.6734 21.0919 64.4679 20.1729 66.5736 20.1729L66.5549 20.1915Z" fill="white"/>
<path d="M93.8783 20.9858V39.0231H89.4731V20.9858H93.8783Z" fill="white"/>
<path d="M91.6646 18.1189C93.0231 18.1189 94.1188 17.025 94.1188 15.678C94.1188 14.331 93.0231 13.2371 91.6646 13.2371C90.3062 13.2371 89.2104 14.331 89.2104 15.678C89.2104 17.025 90.3062 18.1189 91.6646 18.1189Z" fill="white"/>
<path d="M121.306 20.1543C115.969 20.1543 111.652 24.4464 111.652 29.745C111.652 35.0436 115.979 39.3357 121.306 39.3357C126.634 39.3357 130.961 35.0436 130.961 29.745C130.961 24.4464 126.634 20.1543 121.306 20.1543ZM121.306 35.0232C118.289 35.0232 115.845 32.5915 115.845 29.5888C115.845 26.586 118.289 24.1543 121.306 24.1543C124.323 24.1543 126.77 26.586 126.77 29.5888C126.77 32.5915 124.325 35.0232 121.306 35.0232Z" fill="white"/>
<path d="M35.9533 4.13013C42.5518 4.13017 47.9073 9.47721 47.9073 16.0651V39.9329C47.9073 46.5208 42.5518 51.8678 35.9533 51.8678H12.0453C5.44878 51.8697 0.0932817 46.5208 0.0932617 39.9348V16.0651C0.0932617 9.47907 5.44876 4.13016 12.0453 4.13013H35.9533ZM14.5311 23.1087L10.195 42.8501H14.5311L22.8459 21.7041L18.8674 42.8501H23.2037L31.1606 20.2882L27.5418 42.8501H31.878L39.8349 18.1766L31.878 13.2464V13.2371H27.5418L31.1606 19.5813L23.2037 13.2371H18.8674L22.8459 20.9859L14.5311 13.2371H10.195L14.5311 23.1087Z" fill="white"/>
</g>
</g>
<defs>
<clipPath id="clip0_952_7040">
<rect width="131" height="48" fill="white" transform="translate(0 4)"/>
</clipPath>
</defs>
</svg>
