<svg width="165" height="56" viewBox="0 0 165 56" fill="none" xmlns="http://www.w3.org/2000/svg">
<path d="M100.703 10C86.7787 10 75.4941 18.0489 75.4941 27.989C75.4941 37.9291 86.7787 45.978 100.703 45.978C114.627 45.978 125.912 37.9291 125.912 27.989C125.912 18.0489 114.627 10 100.703 10ZM100.703 37.5993C91.0901 37.5993 83.897 32.5412 83.897 28.011C83.897 23.4808 91.0901 18.4227 100.703 18.4227C110.316 18.4227 117.509 23.4808 117.509 28.011C117.509 32.5412 110.338 37.5993 100.703 37.5993Z" fill="white"/>
<path d="M18.0156 10C8.07294 10 0.0219971 18.0489 0 27.989C0 37.9291 8.05094 45.978 17.9936 46C27.9363 46 35.9873 37.9511 36.0093 28.011C36.0093 18.0489 27.9583 10 18.0156 10ZM27.6064 27.989C27.6064 33.2889 23.3169 37.5773 18.0156 37.5993C12.7143 37.5993 8.4029 33.3109 8.4029 28.011C8.4029 22.7111 12.6923 18.4007 17.9936 18.4007C23.2949 18.4007 27.6064 22.6891 27.6064 27.989Z" fill="white"/>
<path d="M68.9166 36.7859H54.6405L72.8541 12.7492C73.448 11.9575 72.8981 10.814 71.8862 10.814H45.7097C43.114 10.814 40.8923 13.189 41.4422 15.872C41.8382 17.8512 43.6859 19.1927 45.7097 19.1927H57.4341L39.1985 43.2514C38.6046 44.0431 39.1545 45.1646 40.1444 45.1646H68.7626C70.7864 45.1646 72.6341 43.8231 73.0301 41.8439C73.58 39.139 71.5123 36.7859 68.9166 36.7859Z" fill="white"/>
<path d="M165 15.0143V43.9771C165 44.241 164.912 44.5049 164.736 44.7248C164.318 45.2526 163.548 45.3405 163.02 44.9227L140.319 26.9117V40.9862C140.319 43.3613 138.362 45.2526 135.986 45.1866C133.698 45.1206 131.917 43.1634 131.917 40.8763V12.0235C131.917 11.7376 132.004 11.4737 132.18 11.2538C132.598 10.748 133.368 10.66 133.874 11.0779L156.575 29.0888V15.1243C156.575 12.8372 158.357 10.9019 160.623 10.814C163.02 10.726 165 12.6392 165 15.0143Z" fill="white"/>
</svg>
