<svg width="160" height="49" viewBox="0 0 160 49" fill="none" xmlns="http://www.w3.org/2000/svg">
<path d="M85.7785 8.48617C85.7785 3.84529 82.0592 0.132596 77.41 0H61.7358V24.1325H68.1118V16.8397H73.6907L79.4025 24.1325H86.177L80.1995 16.3093C83.3875 15.116 85.7785 12.0663 85.7785 8.48617ZM68.1118 5.30385H77.41C79.004 5.30385 80.3323 6.76241 80.3323 8.35357C80.3323 9.94473 79.004 11.2707 77.41 11.4033H68.1118V5.30385Z" fill="white"/>
<path d="M16.1742 0H0.5V24.1325H6.87595V16.8397H16.0414C20.6905 16.8397 24.5426 12.9944 24.5426 8.35357C24.4098 3.84529 20.6905 0.132596 16.1742 0ZM16.0414 11.5359H6.74312V5.30385H16.0414C17.6354 5.30385 18.9637 6.76241 18.9637 8.35357C19.0965 10.0773 17.7682 11.4033 16.0414 11.5359Z" fill="white"/>
<path d="M43.8031 0H37.56L26.8005 24.1325H33.0437L34.372 21.0828H46.991L48.3194 24.1325H54.5625L43.8031 0ZM44.6001 15.6464H36.8958L40.7479 7.02761L44.6001 15.6464Z" fill="white"/>
<path d="M153.257 24.1325H159.5L148.741 0H142.497L131.738 24.1325H137.981L139.309 21.0828H151.796L153.257 24.1325ZM141.7 15.6464L145.553 7.02761L149.405 15.6464H141.7Z" fill="white"/>
<path d="M110.087 11.8011L101.851 0H95.4751V24.1325H101.718V10.2099L110.087 22.011L118.322 10.2099V24.1325H124.565V0H118.322L110.087 11.8011Z" fill="white"/>
<path d="M154.718 35.6685C153.788 35.6685 152.859 35.8011 152.062 36.0663V42.0332C152.062 42.9613 153.257 43.3591 154.718 43.3591C156.976 43.3591 157.641 42.5636 157.641 39.5138C157.641 36.1989 156.976 35.6685 154.718 35.6685ZM154.718 44.5525C153.39 44.5525 152.593 44.1547 152.062 43.7569V47.8674H150.866V35.2708C151.929 34.7404 153.523 34.4752 154.718 34.4752C157.641 34.4752 158.969 35.5359 158.969 39.3812C158.969 43.3591 157.641 44.5525 154.718 44.5525ZM148.21 34.7404V43.7569C147.147 44.2873 145.553 44.5525 144.357 44.5525C141.568 44.5525 140.638 43.6243 140.638 40.1768V34.873H141.834V39.9116C141.834 42.8287 142.498 43.3591 144.49 43.3591C145.42 43.3591 146.217 43.2265 146.881 42.9613V34.7404H148.21ZM133.996 35.6685C136.255 35.6685 136.919 36.3315 136.919 39.5138C136.919 42.5636 136.122 43.3591 133.996 43.3591C131.738 43.3591 131.074 42.5636 131.074 39.5138C131.074 36.1989 131.738 35.6685 133.996 35.6685ZM133.996 44.5525C136.919 44.5525 138.38 43.3591 138.38 39.5138C138.38 35.6685 137.052 34.6078 133.996 34.6078C131.074 34.6078 129.746 35.6685 129.746 39.5138C129.613 43.3591 131.074 44.5525 133.996 44.5525ZM127.355 34.4752C126.027 34.4752 125.097 35.0056 124.698 35.4034V34.7404H123.503V44.1547H124.698V36.8619C124.698 35.9337 125.894 35.6685 127.355 35.6685C127.753 35.6685 128.019 35.6685 128.285 35.8011V34.6078C128.019 34.4752 127.753 34.4752 127.355 34.4752ZM116.994 35.6685C117.924 35.6685 118.854 35.8011 119.651 36.0663V42.0332C119.651 42.9613 118.455 43.3591 116.994 43.3591C114.736 43.3591 114.072 42.5636 114.072 39.5138C114.072 36.1989 114.736 35.6685 116.994 35.6685ZM120.846 35.2708C119.783 34.7404 118.189 34.4752 116.994 34.4752C114.072 34.4752 112.743 35.5359 112.743 39.3812C112.743 43.2265 114.072 44.4199 116.994 44.4199C118.322 44.4199 119.119 44.0221 119.651 43.6243C119.651 46.1437 118.455 46.8066 116.197 46.8066C115.533 46.8066 114.204 46.5414 113.54 46.2763L113.142 47.4696C113.806 47.7348 115.4 48 116.197 48C119.119 48 120.846 47.0718 120.846 43.4917V35.2708ZM104.242 36.1989L104.641 35.0056C103.578 34.7404 102.382 34.4752 101.585 34.4752C99.0616 34.4752 97.8661 35.1382 97.8661 37.3923C97.8661 39.1161 99.0616 39.779 101.453 39.9116C103.312 40.0442 103.844 40.5746 103.844 41.5028C103.844 42.9613 103.047 43.2265 101.453 43.2265C100.523 43.2265 99.0616 42.9613 98.3974 42.6961L97.9989 43.8895C98.9287 44.1547 100.523 44.4199 101.453 44.4199C103.976 44.4199 105.172 43.6243 105.172 41.5028C105.172 39.779 104.109 38.9835 101.718 38.8509C99.9914 38.7183 99.3272 38.3205 99.3272 37.3923C99.3272 35.9337 100.124 35.6685 101.718 35.6685C102.515 35.6685 103.445 35.8011 104.242 36.1989ZM92.0215 35.6685C93.7483 35.6685 94.4124 36.1989 94.5453 38.5857H89.232C89.232 36.3315 90.029 35.6685 92.0215 35.6685ZM92.0215 34.4752C89.232 34.4752 87.7708 35.6685 87.7708 39.3812C87.7708 43.2265 89.3648 44.4199 92.1543 44.4199C92.9513 44.4199 94.2796 44.1547 95.2094 43.8895L94.9438 42.8287C94.1468 43.0939 92.9513 43.3591 92.2871 43.3591C90.029 43.3591 89.0991 42.6962 89.0991 39.6464H95.8736C95.8736 35.5359 94.6781 34.4752 92.0215 34.4752ZM84.8485 31.1603C84.1843 31.1603 84.0515 31.2929 84.0515 31.9558C84.0515 32.6188 84.1843 32.7514 84.8485 32.7514C85.3798 32.7514 85.6455 32.6188 85.6455 31.9558C85.5127 31.2929 85.3798 31.1603 84.8485 31.1603ZM85.3798 44.2873H84.1843V34.873H85.3798V44.2873ZM77.6756 35.6685C78.6054 35.6685 79.5352 35.8011 80.3322 36.0663V42.0332C80.3322 42.9613 79.1367 43.3591 77.6756 43.3591C75.4174 43.3591 74.7533 42.5636 74.7533 39.5138C74.7533 36.1989 75.4174 35.6685 77.6756 35.6685ZM81.5277 35.2708C80.465 34.7404 78.8711 34.4752 77.6756 34.4752C74.7533 34.4752 73.4249 35.5359 73.4249 39.3812C73.4249 43.2265 74.7533 44.4199 77.6756 44.4199C79.0039 44.4199 79.8009 44.0221 80.3322 43.6243C80.3322 46.1437 79.1367 46.8066 76.8786 46.8066C76.2144 46.8066 74.8861 46.5414 74.2219 46.2763L73.8234 47.4696C74.4876 47.7348 76.0816 48 76.8786 48C79.8009 48 81.5277 47.0718 81.5277 43.4917V35.2708ZM66.9162 35.6685C69.1743 35.6685 69.8385 36.3315 69.8385 39.5138C69.8385 42.5636 69.0415 43.3591 66.9162 43.3591C64.658 43.3591 63.9938 42.5636 63.9938 39.5138C63.9938 36.1989 64.658 35.6685 66.9162 35.6685ZM66.9162 44.5525C69.8385 44.5525 71.2996 43.3591 71.2996 39.5138C71.2996 35.6685 69.9713 34.6078 66.9162 34.6078C63.9938 34.6078 62.6655 35.6685 62.6655 39.5138C62.6655 43.3591 63.9938 44.5525 66.9162 44.5525ZM60.1417 30.6299H58.9462V41.768C58.9462 43.0939 59.3447 43.7569 60.1417 44.5525L61.0715 43.7569C60.4074 43.0939 60.1417 42.6961 60.1417 41.768V30.6299ZM52.1718 35.6685C54.4299 35.6685 55.0941 36.3315 55.0941 39.5138C55.0941 42.5636 54.2971 43.3591 52.1718 43.3591C49.9136 43.3591 49.2495 42.5636 49.2495 39.5138C49.2495 36.1989 50.0465 35.6685 52.1718 35.6685ZM52.1718 44.5525C55.0941 44.5525 56.5552 43.3591 56.5552 39.5138C56.5552 35.6685 55.2269 34.6078 52.1718 34.6078C49.2495 34.6078 47.9211 35.6685 47.9211 39.5138C47.9211 43.3591 49.2495 44.5525 52.1718 44.5525ZM39.287 35.9337C40.084 35.6685 40.7482 35.6685 41.678 35.6685C43.8033 35.6685 44.4675 36.1989 44.4675 39.116V44.1547H45.663V38.8509C45.663 35.4034 44.7332 34.4752 41.9437 34.4752C40.7482 34.4752 39.1542 34.7404 38.0915 35.2708V44.2873H39.287V35.9337ZM31.8484 34.4752C30.6529 34.4752 29.5903 34.873 29.0589 35.2708V30.7625H27.8635V44.2873H29.0589V36.9945C29.0589 36.0663 30.3873 35.6685 31.7156 35.6685C33.5752 35.6685 34.2394 36.1989 34.2394 39.116V44.1547H35.4349V38.8509C35.4349 35.4034 34.3722 34.4752 31.8484 34.4752ZM25.6053 42.8287C24.9411 43.0939 24.1441 43.3591 23.3472 43.3591C21.089 43.3591 20.1592 42.5636 20.1592 39.5138C20.1592 36.3315 21.2218 35.6685 23.3472 35.6685C24.1441 35.6685 24.9411 35.8011 25.6053 36.0663L26.0038 34.873C25.3396 34.6078 24.1441 34.3426 23.3472 34.3426C20.4248 34.3426 18.8309 35.4034 18.8309 39.2486C18.8309 43.0939 20.4248 44.2873 23.3472 44.2873C24.1441 44.2873 25.3396 44.0221 26.0038 43.7569L25.6053 42.8287ZM12.8534 35.6685C14.5802 35.6685 15.2444 36.1989 15.3772 38.5857H10.0639C10.0639 36.3315 10.8609 35.6685 12.8534 35.6685ZM12.8534 34.4752C10.0639 34.4752 8.60277 35.6685 8.60277 39.3812C8.60277 43.2265 10.1968 44.4199 12.9862 44.4199C13.7832 44.4199 15.1116 44.1547 16.0414 43.8895L15.7757 42.8287C14.9787 43.0939 13.7832 43.3591 13.1191 43.3591C10.8609 43.3591 9.93109 42.6962 9.93109 39.6464H16.7055C16.7055 35.5359 15.51 34.4752 12.8534 34.4752ZM3.42231 41.105C3.42231 42.6961 3.82081 43.3591 5.14913 43.3591C5.81329 43.3591 6.47745 43.2265 7.00878 43.0939L7.27445 44.1547C6.74312 44.2873 5.81329 44.5525 5.14913 44.5525C3.02381 44.5525 2.22682 43.8895 2.22682 41.105V35.9337H0.5V34.873H2.22682V32.884L3.42231 32.3536V34.873H6.87595V35.9337H3.42231V41.105Z" fill="white"/>
</svg>
