<svg width="167" height="56" viewBox="0 0 167 56" fill="none" xmlns="http://www.w3.org/2000/svg">
<g clip-path="url(#clip0_952_7114)">
<path d="M10.3958 38.525C2.2629 35.6067 -1.99059 26.63 0.911873 18.455C1.68017 16.2581 2.93035 14.2602 4.57114 12.6071C6.21193 10.9541 8.20191 9.68752 10.3958 8.9C5.66469 11.3583 2.34306 17.075 2.34306 23.7117C2.34306 30.3483 5.66469 36.0667 10.3958 38.525ZM20.8533 8.9C23.0469 9.68773 25.0366 10.9544 26.6771 12.6074C28.3176 14.2605 29.5675 16.2583 30.3356 18.455C33.2397 26.63 28.9829 35.6267 20.8533 38.525C25.5845 36.0667 28.9044 30.3683 28.9044 23.7117C28.9044 17.055 25.5845 11.3583 20.8533 8.9ZM8.78425 23.7117C8.78425 31.0483 10.8517 37.225 13.6941 39.165C8.66401 37.845 4.86643 31.4283 4.86643 23.7117C4.86643 15.995 8.68572 9.57833 13.6957 8.26C10.8551 10.1983 8.78425 16.395 8.78425 23.7117ZM17.5518 8.26C22.5618 9.58 26.3777 15.9967 26.3777 23.7117C26.3777 31.4283 22.5618 37.845 17.5518 39.165C20.3941 37.225 22.4616 31.0283 22.4616 23.7117C22.4616 16.395 20.3941 10.2183 17.5518 8.26ZM15.6246 8C17.2345 8 18.5471 15.0567 18.5471 23.7333C18.5471 32.4083 17.2345 39.445 15.6246 39.445C14.0147 39.445 12.7021 32.3883 12.7021 23.7117C12.7021 15.0367 14.0147 8 15.6246 8ZM166.046 12.2383C165.863 12.4233 165.645 12.5701 165.405 12.6703C165.164 12.7705 164.906 12.8221 164.645 12.8221C164.385 12.8221 164.127 12.7705 163.886 12.6703C163.646 12.5701 163.427 12.4233 163.244 12.2383C163.059 12.0515 162.912 11.8297 162.813 11.586C162.715 11.3422 162.665 11.0813 162.668 10.8183C162.668 10.2783 162.867 9.77833 163.244 9.4C163.427 9.21506 163.646 9.06824 163.886 8.96804C164.127 8.86784 164.385 8.81624 164.645 8.81624C164.906 8.81624 165.164 8.86784 165.405 8.96804C165.645 9.06824 165.863 9.21506 166.046 9.4C166.426 9.75833 166.644 10.2783 166.624 10.8183C166.624 11.3383 166.424 11.8583 166.046 12.2383ZM163.423 9.6C163.106 9.91833 162.925 10.3583 162.925 10.8183C162.925 11.2783 163.106 11.7183 163.423 12.0383C163.579 12.1994 163.766 12.3275 163.972 12.415C164.179 12.5025 164.401 12.5476 164.625 12.5476C164.85 12.5476 165.072 12.5025 165.278 12.415C165.485 12.3275 165.672 12.1994 165.828 12.0383C166.147 11.7183 166.325 11.2783 166.325 10.8183C166.325 10.3583 166.147 9.91833 165.829 9.6C165.193 8.92 164.119 8.92 163.423 9.6C163.443 9.6 163.443 9.6 163.423 9.6ZM164.595 9.7C164.796 9.7 164.994 9.71833 165.193 9.77833C165.41 9.87833 165.53 10.0583 165.53 10.3383C165.537 10.4245 165.519 10.5107 165.481 10.588C165.443 10.6654 165.384 10.7311 165.312 10.7783C165.218 10.841 165.108 10.8756 164.994 10.8783C165.069 10.8883 165.14 10.9129 165.205 10.9506C165.27 10.9884 165.327 11.0386 165.372 11.0983C165.45 11.1983 165.49 11.3183 165.49 11.4383V11.7583C165.49 11.7983 165.49 11.8383 165.51 11.8783L165.53 11.8983H165.173V11.6167C165.173 11.3567 165.113 11.1967 164.973 11.1167C164.841 11.0614 164.698 11.0341 164.555 11.0367H164.258V11.8967H163.86V9.69667H164.595V9.7ZM165.013 10.0583C164.871 9.99193 164.713 9.96433 164.557 9.97833H164.218V10.7783H164.557C164.675 10.7783 164.794 10.7583 164.914 10.7383C164.983 10.7143 165.043 10.6677 165.082 10.606C165.121 10.5443 165.139 10.4711 165.131 10.3983C165.153 10.2183 165.111 10.1183 165.013 10.0583ZM50.5576 32.35C50.9167 33.05 51.4327 33.6683 52.069 34.1283C52.7253 34.6083 53.4801 34.9483 54.2767 35.1283C55.1323 35.355 56.0152 35.4627 56.9003 35.4483C57.5566 35.4483 58.2129 35.3883 58.8692 35.2883C59.5439 35.1883 60.2002 34.9883 60.8365 34.6883C61.4327 34.4083 61.9504 33.9883 62.3679 33.4883C62.7653 32.97 62.9841 32.33 62.9841 31.53C62.9841 30.69 62.7052 29.99 62.1691 29.4717C61.6314 28.9517 60.9166 28.5117 60.0416 28.1517C59.0769 27.7759 58.0869 27.4685 57.079 27.2317C55.9524 26.964 54.8321 26.6706 53.7189 26.3517C52.5666 26.0733 51.4327 25.7133 50.3188 25.2733C49.2587 24.87 48.2617 24.3178 47.3579 23.6333C46.4843 22.9534 45.7658 22.0954 45.2504 21.1167C44.7126 20.1167 44.4354 18.8967 44.4354 17.4567C44.4354 15.8567 44.7728 14.4583 45.4691 13.2783C46.1389 12.1102 47.0545 11.1009 48.1528 10.32C49.2851 9.52 50.5576 8.92 51.9103 8.56167C53.2701 8.18672 54.6746 7.99832 56.0853 8.00167C57.6551 8.00167 59.2466 8.18167 60.778 8.54167C62.2091 8.88045 63.564 9.48361 64.7727 10.32C65.9304 11.1325 66.8778 12.2082 67.5365 13.4583C68.2129 14.7383 68.5719 16.2783 68.5719 18.0767H61.9504C61.8903 17.1367 61.6915 16.3567 61.3542 15.7583C61.0362 15.1757 60.5783 14.6809 60.0215 14.3183C59.4381 13.9529 58.7903 13.7018 58.1127 13.5783C57.3468 13.4259 56.5673 13.3522 55.7864 13.3583C55.2303 13.3583 54.6742 13.4183 54.1364 13.5383C53.6004 13.6383 53.0843 13.8583 52.6251 14.1583C52.1892 14.4383 51.7901 14.8183 51.5129 15.2583C51.2139 15.6983 51.0753 16.2583 51.0753 16.9167C51.0753 17.5367 51.1939 18.0367 51.4327 18.4167C51.6715 18.7967 52.1291 19.1567 52.8055 19.4767C53.4801 19.795 54.4354 20.115 55.6478 20.435C56.8602 20.755 58.4317 21.155 60.3789 21.655C60.9567 21.775 61.7717 21.975 62.8054 22.295C63.8987 22.6364 64.9366 23.1343 65.8866 23.7733C66.9387 24.4733 67.8355 25.3933 68.5302 26.4733C69.265 27.5917 69.6441 29.0317 69.6441 30.79C69.6573 32.1672 69.3725 33.5311 68.8091 34.7883C68.2461 36.0246 67.4021 37.1128 66.3441 37.9667C65.2503 38.8667 63.8976 39.5467 62.2877 40.045C60.6778 40.545 58.8091 40.785 56.6815 40.785C54.9915 40.785 53.3215 40.585 51.6916 40.145C50.1506 39.7604 48.6989 39.0818 47.4164 38.1467C46.1792 37.2381 45.1717 36.0539 44.4738 34.6883C43.739 33.2883 43.4017 31.63 43.4217 29.69H50.0416C49.9815 30.73 50.1785 31.63 50.5576 32.35ZM74.138 13.9V8.75833H80.3204V13.895H74.1364L74.138 13.9ZM80.3204 17.3967V40.065H74.1364V17.3983L80.3204 17.3967ZM92.2275 17.3967V20.475H92.3076C93.0643 19.3541 94.0716 18.4241 95.2502 17.7583C96.4025 17.1167 97.7168 16.7967 99.188 16.7967C100.534 16.7721 101.868 17.0597 103.084 17.6367C104.256 18.1967 105.152 19.1767 105.768 20.575C106.444 19.575 107.338 18.6967 108.492 17.9367C109.644 17.1767 110.997 16.7967 112.566 16.7967C113.68 16.7967 114.794 16.9367 115.888 17.2367C116.862 17.4967 117.757 17.9767 118.512 18.6367C119.246 19.2767 119.804 20.115 120.222 21.155C120.619 22.195 120.838 23.4333 120.838 24.8933V40.065H114.654V27.2317C114.654 26.4717 114.636 25.7533 114.575 25.0933C114.539 24.4801 114.377 23.8809 114.098 23.3333C113.844 22.832 113.441 22.4207 112.945 22.155C112.428 21.855 111.751 21.715 110.878 21.715C110.003 21.715 109.308 21.875 108.771 22.215C108.253 22.535 107.815 22.995 107.518 23.5333C107.201 24.1133 107 24.7333 106.9 25.3733C106.802 26.0533 106.741 26.7517 106.741 27.4517V40.085H100.539V27.3517C100.539 26.6717 100.519 26.0133 100.499 25.3517C100.483 24.7285 100.355 24.1133 100.122 23.535C99.9089 22.9837 99.5257 22.5143 99.0277 22.195C98.51 21.855 97.7752 21.695 96.7816 21.695C96.3904 21.7113 96.003 21.7785 95.6293 21.895C95.1116 22.035 94.6339 22.295 94.2365 22.635C93.7789 22.995 93.4015 23.535 93.0842 24.2133C92.7669 24.8933 92.6066 25.7933 92.6066 26.9133V40.065H86.4242V17.3983H92.2291L92.2275 17.3967ZM131.593 17.3967V20.2967H131.673C132.428 19.0767 133.383 18.1767 134.555 17.6167C135.757 17.0584 137.067 16.7716 138.393 16.7767C140.163 16.7767 141.693 17.1167 142.965 17.7767C144.218 18.4167 145.292 19.3367 146.147 20.455C147.02 21.6118 147.656 22.93 148.016 24.3333C148.433 25.8333 148.632 27.3917 148.632 28.95C148.632 30.43 148.431 31.91 148.014 33.3283C147.635 34.6715 147.008 35.9324 146.167 37.0467C145.336 38.1247 144.276 39.0058 143.064 39.6267C141.831 40.265 140.38 40.585 138.73 40.585C137.395 40.6006 136.074 40.3062 134.873 39.725C133.7 39.1565 132.699 38.2882 131.972 37.2083H131.892V48H125.709V17.395L131.593 17.3967ZM139.625 35.3683C140.295 34.974 140.861 34.4254 141.275 33.7683C141.713 33.0683 142.01 32.29 142.171 31.47C142.523 29.7011 142.516 27.8795 142.15 26.1133C141.973 25.2862 141.657 24.4951 141.215 23.7733C140.796 23.0984 140.224 22.5305 139.545 22.115C138.871 21.695 138.036 21.475 137.04 21.475C136.027 21.475 135.172 21.695 134.497 22.115C133.829 22.5292 133.264 23.0894 132.845 23.7533C132.409 24.4733 132.11 25.2533 131.952 26.0733C131.776 26.9682 131.69 27.8782 131.693 28.79C131.693 29.69 131.793 30.59 131.972 31.47C132.13 32.29 132.448 33.07 132.885 33.77C133.303 34.4283 133.879 34.9683 134.555 35.3683C135.252 35.7883 136.087 35.9883 137.08 35.9883C138.094 35.9883 138.951 35.7883 139.625 35.3683ZM158.672 8.76V40.0633H152.488V8.76H158.672Z" fill="white"/>
</g>
<defs>
<clipPath id="clip0_952_7114">
<rect width="167" height="40" fill="white" transform="translate(0 8)"/>
</clipPath>
</defs>
</svg>
