<svg width="275" height="56" viewBox="0 0 275 56" fill="none" xmlns="http://www.w3.org/2000/svg">
<path d="M83.2771 33.7801C83.2771 37.424 79.8909 40.0628 75.125 40.0628H63.9629V17.445H74.7487C79.3892 17.445 82.6501 19.9581 82.6501 23.4764C82.6501 25.8638 81.3959 27.3717 79.5146 28.2513C81.5213 29.0052 83.2771 31.0157 83.2771 33.7801ZM68.8542 21.5916V26.4921H74.6234C76.3792 26.4921 77.5079 25.4869 77.5079 24.1047C77.5079 22.7225 76.2538 21.5916 74.6234 21.5916H68.8542ZM75.125 35.9162C77.0063 35.9162 78.3859 34.7853 78.3859 33.1518C78.3859 31.5183 77.1317 30.3874 75.125 30.3874H68.8542V35.9162H75.125Z" fill="white"/>
<path d="M101.714 39.9371L93.9377 31.0157H92.6835V39.9371H87.6668V17.445H92.6835V26.1151H93.9377L101.463 17.445H107.357L97.951 28.2513L108.235 39.9371H101.714Z" fill="white"/>
<path d="M108.235 28.754C108.235 21.9686 113.252 17.0681 120.275 17.0681C127.299 17.0681 132.315 21.9686 132.315 28.754C132.315 35.5393 127.299 40.4398 120.275 40.4398C113.252 40.4398 108.235 35.5393 108.235 28.754ZM127.048 28.754C127.048 24.4817 124.289 21.5917 120.275 21.5917C116.262 21.5917 113.503 24.4817 113.503 28.754C113.503 33.0262 116.262 35.9163 120.275 35.9163C124.289 35.9163 127.048 33.0262 127.048 28.754Z" fill="white"/>
<path d="M151.504 17.445H156.521V39.9371H151.504V30.89H141.471V39.9371H136.454V17.445H141.471V26.3665H151.504V17.445Z" fill="white"/>
<path d="M167.307 39.9371V21.9686H159.531V17.445H179.974V21.9686H172.198V39.9371H167.307Z" fill="white"/>
<path d="M201.546 27.3718V39.9372H197.909L196.905 36.4189C195.776 38.3037 193.394 40.4398 189.756 40.4398C185.241 40.4398 181.981 37.4241 181.981 33.2775C181.981 29.1309 185.241 26.2409 191.889 26.2409H196.78C196.529 23.3508 195.024 21.3404 192.265 21.3404C190.007 21.3404 188.502 22.5969 187.75 23.9791L183.235 23.2252C184.363 19.3299 188.251 17.0681 192.516 17.0681C198.034 17.0681 201.546 20.8377 201.546 27.3718ZM196.654 30.1362H192.014C188.251 30.1362 186.997 31.3927 186.997 33.0262C186.997 34.911 188.502 36.1676 191.011 36.1676C194.271 36.1676 196.654 33.7802 196.654 30.1362Z" fill="white"/>
<path d="M220.86 39.9371L213.084 31.0157H211.83V39.9371H206.813V17.445H211.83V26.1151H213.084L220.609 17.445H226.504L217.097 28.2513L227.382 39.9371H220.86Z" fill="white"/>
<path d="M236.412 39.9371V21.9686H228.636V17.445H249.079V21.9686H241.303V39.9371H236.412Z" fill="white"/>
<path d="M274.162 30.1362H256.102C256.604 33.6545 259.112 35.9163 262.875 35.9163C265.508 35.9163 267.515 34.7854 268.644 33.1519L273.284 33.9058C271.654 38.1781 267.264 40.4398 262.498 40.4398C255.726 40.4398 250.835 35.5393 250.835 28.754C250.835 21.9686 255.726 17.0681 262.498 17.0681C269.271 17.0681 274.162 21.9686 274.162 28.5027C274.288 29.1309 274.162 29.6336 274.162 30.1362ZM256.478 26.2409H268.895C268.017 23.4765 265.759 21.466 262.624 21.466C259.614 21.3404 257.231 23.3508 256.478 26.2409Z" fill="white"/>
<path fill-rule="evenodd" clip-rule="evenodd" d="M3.36776 7.37413C0 10.7483 0 16.1788 0 27.04V28.96C0 39.8212 0 45.2517 3.36776 48.6259C6.73552 52 12.1559 52 22.9965 52H24.9129C35.7536 52 41.1739 52 44.5416 48.6259C47.9094 45.2517 47.9094 39.8212 47.9094 28.96V27.04C47.9094 16.1788 47.9094 10.7483 44.5416 7.37413C41.1739 4 35.7535 4 24.9129 4H22.9965C12.1559 4 6.73552 4 3.36776 7.37413ZM8.08479 18.6001C8.34429 31.0801 14.5725 38.5801 25.4918 38.5801H26.1108V31.4401C30.1232 31.8401 33.1572 34.7801 34.3749 38.5801H40.0444C38.4873 32.9001 34.3948 29.7601 31.8397 28.5601C34.3948 27.0801 37.9881 23.4801 38.8464 18.6001H33.696C32.5781 22.5601 29.2648 26.1601 26.1108 26.5001V18.6001H20.9603V32.4401C17.7664 31.6401 13.7341 27.7601 13.5544 18.6001H8.08479Z" fill="white"/>
</svg>
