<svg width="108" height="56" viewBox="0 0 108 56" fill="none" xmlns="http://www.w3.org/2000/svg">
<g style="mix-blend-mode:luminosity">
<g clip-path="url(#clip0_952_7088)">
<path d="M48.0712 4H0V52H48.0712V4Z" fill="white"/>
<path d="M48.0712 4H0V52H48.0712V4Z" fill="white"/>
<path d="M35.5228 29.0521C34.6569 29.0521 33.9278 29.78 33.9278 30.6445C33.9278 31.5089 34.6114 32.1914 35.5228 32.1914C36.3884 32.1914 37.072 31.5089 37.072 30.6445C37.1175 29.78 36.3884 29.0521 35.5228 29.0521ZM35.5228 33.9203C33.7 33.9203 32.1963 32.4644 32.1963 30.6445C32.1963 28.8246 33.7 27.3687 35.5228 27.3687C37.3454 27.3687 38.8035 28.8246 38.8035 30.6445C38.849 32.4644 37.3454 33.9203 35.5228 33.9203Z" fill="#070708"/>
<path d="M23.6485 42.4453H21.917V36.5308H23.6485V42.4453Z" fill="#070708"/>
<path d="M26.1543 42.4453H24.4229V36.5308H26.1543V42.4453Z" fill="#070708"/>
<path d="M31.6085 16.4172L33.2943 14.7338L32.064 13.5054L30.3782 15.1888L29.1479 16.4172L31.3351 18.6011L29.6492 20.2845L30.8794 21.513L33.7955 18.6011L31.6085 16.4172Z" fill="#070708"/>
<path d="M12.4162 30.6298L13.2364 32.0402H11.596L12.4162 30.6298ZM12.4162 27.354L8.771 33.6327H16.0614L12.4162 27.354Z" fill="#070708"/>
<path d="M20.0162 15.3705L18.786 14.1421L16.69 16.235L14.594 14.1421L13.3638 15.3705L15.4597 17.4634L13.3638 19.5563L14.594 20.7847L16.69 18.6919L18.786 20.7847L20.0162 19.5563L17.9203 17.4634L20.0162 15.3705Z" fill="#070708"/>
<path d="M103.343 31.9353C103.528 31.9353 103.704 31.9147 103.869 31.8734C104.035 31.8322 104.189 31.7652 104.334 31.6724C104.613 31.4971 104.83 31.2755 104.984 31.0075C105.149 30.7291 105.232 30.4456 105.232 30.157V29.6157C105.098 29.7188 104.928 29.8013 104.721 29.8631C104.525 29.925 104.292 29.9817 104.024 30.0332C103.642 30.1054 103.358 30.1673 103.172 30.2188C102.987 30.2704 102.822 30.3425 102.677 30.4353C102.553 30.5281 102.46 30.6363 102.398 30.76C102.336 30.8734 102.305 31.0023 102.305 31.1467C102.305 31.4044 102.393 31.6003 102.568 31.7343C102.744 31.8683 103.002 31.9353 103.343 31.9353ZM105.666 33.76L105.356 32.26C105.098 32.7652 104.716 33.1827 104.21 33.5126C103.704 33.8322 103.033 33.992 102.197 33.992C101.226 33.992 100.498 33.7755 100.013 33.3425C99.5383 32.9095 99.3008 32.3219 99.3008 31.5796C99.3008 31.0332 99.404 30.5848 99.6104 30.2343C99.8273 29.8735 100.116 29.5796 100.478 29.3528C100.602 29.2807 100.72 29.2137 100.834 29.1518C100.958 29.0899 101.082 29.0384 101.206 28.9972C101.453 28.9044 101.742 28.8271 102.073 28.7652C102.403 28.6931 102.811 28.6209 103.296 28.5487C103.978 28.4559 104.468 28.3529 104.767 28.2395C105.067 28.126 105.217 27.925 105.217 27.6363C105.217 27.3786 105.124 27.1724 104.938 27.0178C104.762 26.8529 104.432 26.7704 103.947 26.7704C103.461 26.7704 103.095 26.8786 102.847 27.0951C102.599 27.3116 102.465 27.6363 102.445 28.0693H99.5796C99.6517 27.0281 100.044 26.1931 100.756 25.5642C101.479 24.9251 102.543 24.6055 103.947 24.6055C104.442 24.6055 104.886 24.6415 105.279 24.7137C105.681 24.7859 106.027 24.8941 106.316 25.0384C106.915 25.3168 107.343 25.7137 107.602 26.2292C107.86 26.7446 107.989 27.3477 107.989 28.0384V33.76H105.666Z" fill="white"/>
<path d="M98.2584 33.7601H95.4087V21.853H98.2584V33.7601Z" fill="white"/>
<path d="M93.8423 33.7601H90.9927V21.853H93.8423V33.7601Z" fill="white"/>
<path d="M85.2527 33.992C83.7968 33.992 82.6767 33.6157 81.8919 32.8631C81.1176 32.1106 80.7305 30.9868 80.7305 29.492V29.2137C80.7305 28.7085 80.7769 28.2446 80.8699 27.8219C80.9731 27.3889 81.1227 27.0023 81.3189 26.6621C81.7009 25.9817 82.2325 25.4714 82.9142 25.1312C83.6058 24.7807 84.3906 24.6055 85.2681 24.6055C85.7225 24.6055 86.1455 24.6518 86.5381 24.7446C86.9304 24.8271 87.297 24.956 87.6377 25.1312C88.319 25.4817 88.8455 26.0024 89.2173 26.6931C89.5993 27.3735 89.7903 28.2137 89.7903 29.2137V29.492C89.7903 29.9868 89.7438 30.4456 89.6509 30.8683C89.5579 31.2807 89.4185 31.6518 89.2327 31.9817C88.8507 32.6518 88.319 33.1569 87.6377 33.4971C86.9666 33.827 86.1715 33.992 85.2527 33.992ZM85.2681 31.5642C85.7844 31.5642 86.1974 31.3889 86.507 31.0384C86.8272 30.6879 86.9871 30.1621 86.9871 29.4611V29.2137C86.9871 28.4817 86.8374 27.9302 86.5381 27.559C86.249 27.1776 85.8308 26.9869 85.2835 26.9869C84.7569 26.9869 84.3336 27.1724 84.0137 27.5436C83.6936 27.9044 83.5337 28.4611 83.5337 29.2137V29.4611C83.5337 30.1518 83.6936 30.6776 84.0137 31.0384C84.3336 31.3889 84.7518 31.5642 85.2681 31.5642Z" fill="white"/>
<path d="M75.7608 34.0073C74.4187 34.0073 73.381 33.7238 72.6481 33.1568C71.9151 32.5897 71.4761 31.7908 71.3315 30.7599H74.2431C74.336 31.1207 74.5167 31.3939 74.7853 31.5794C75.0641 31.765 75.4355 31.8578 75.9002 31.8578C76.3441 31.8578 76.6642 31.7908 76.8604 31.6568C77.0671 31.5124 77.1703 31.3166 77.1703 31.0691C77.1703 30.9661 77.1443 30.8784 77.0927 30.8063C77.0514 30.7238 76.9793 30.6568 76.8761 30.6052C76.6902 30.5022 76.437 30.4248 76.1172 30.3733C75.797 30.3217 75.4512 30.2753 75.0795 30.2341C74.6975 30.1825 74.3052 30.1155 73.9024 30.0331C73.5101 29.9403 73.149 29.8011 72.8185 29.6156C72.4776 29.4403 72.2042 29.1877 71.9975 28.8578C71.8014 28.5279 71.7033 28.095 71.7033 27.5589C71.7033 26.6826 72.0388 25.9713 72.7099 25.4249C73.381 24.8682 74.3517 24.5898 75.6214 24.5898C76.9741 24.5898 77.9756 24.8682 78.6259 25.4249C79.2764 25.9713 79.6687 26.6929 79.803 27.5898H77.0309C76.969 27.2702 76.8139 27.0331 76.5662 26.8785C76.3287 26.7135 76.0034 26.6311 75.5907 26.6311C75.1571 26.6311 74.8523 26.7032 74.677 26.8475C74.5014 26.9919 74.4136 27.1723 74.4136 27.3888C74.4136 27.6671 74.5943 27.8527 74.9555 27.9455C75.3272 28.0383 75.8435 28.1259 76.5043 28.2083C76.8966 28.2599 77.2888 28.3321 77.6811 28.4249C78.0839 28.5176 78.4557 28.6568 78.7964 28.8424C79.1268 29.0279 79.395 29.2857 79.6017 29.6156C79.8081 29.9352 79.9113 30.3578 79.9113 30.8836C79.9113 31.1825 79.87 31.4661 79.7876 31.7341C79.7152 32.0021 79.6068 32.2547 79.4623 32.4918C79.1524 32.9557 78.688 33.3269 78.0686 33.6052C77.4593 33.8733 76.6902 34.0073 75.7608 34.0073Z" fill="white"/>
<path d="M68.5048 33.7599L66.4294 30.2651L64.3543 33.7599H61.0864L64.695 27.8991L61.4582 22.6724H64.5709L66.3986 25.7497L68.226 22.6724H71.3698L68.0712 27.8991L71.664 33.7599H68.5048Z" fill="white"/>
</g>
</g>
<defs>
<clipPath id="clip0_952_7088">
<rect width="108" height="48" fill="white" transform="translate(0 4)"/>
</clipPath>
</defs>
</svg>
