<svg width="24" height="24" viewBox="0 0 24 24" fill="none" xmlns="http://www.w3.org/2000/svg">
<path d="M9.38721 6.21973C9.61061 6.21973 9.80203 6.29968 9.96338 6.46094L14.9077 11.4053C14.9954 11.493 15.0577 11.5832 15.0962 11.6758C15.135 11.769 15.1548 11.8685 15.1548 11.9746C15.1548 12.0807 15.135 12.1802 15.0962 12.2734C15.0576 12.366 14.9954 12.4562 14.9077 12.5439L9.93896 17.5137C9.77763 17.675 9.59046 17.75 9.37646 17.7422C9.16129 17.7342 8.97308 17.6503 8.81104 17.4883C8.64978 17.3269 8.56983 17.1355 8.56982 16.9121C8.56982 16.6887 8.64978 16.4973 8.81104 16.3359L13.1401 12.0078L13.1733 11.9746L8.78662 7.58789C8.62534 7.42657 8.55029 7.24035 8.55811 7.02637C8.56598 6.81114 8.64903 6.62302 8.81104 6.46094C8.97233 6.29964 9.16388 6.21982 9.38721 6.21973Z" fill="#81818B" stroke="#81818B" stroke-width="0.09375"/>
</svg>
