<svg width="24" height="24" viewBox="0 0 24 24" fill="none" xmlns="http://www.w3.org/2000/svg">
<path d="M17.9992 9C18.6288 8.52776 19.0939 7.86939 19.3286 7.11813C19.5633 6.36687 19.5556 5.56082 19.3067 4.81415C19.0578 4.06748 18.5803 3.41804 17.9418 2.95784C17.3033 2.49764 16.5362 2.25 15.7492 2.25H8.99915C8.21209 2.25 7.44498 2.49764 6.80649 2.95784C6.16799 3.41804 5.69048 4.06748 5.44159 4.81415C5.1927 5.56082 5.18505 6.36687 5.41973 7.11813C5.6544 7.86939 6.1195 8.52776 6.74915 9C6.27242 9.35728 5.88766 9.823 5.62676 10.3586C5.36586 10.8942 5.23633 11.4842 5.24888 12.0798C5.26143 12.6755 5.41572 13.2595 5.69895 13.7837C5.98219 14.3078 6.38622 14.7569 6.87759 15.0938C6.31869 15.5187 5.87749 16.0792 5.59578 16.7223C5.31406 17.3654 5.20116 18.0698 5.26775 18.7687C5.33434 19.4676 5.57822 20.138 5.97631 20.7163C6.3744 21.2947 6.91351 21.7618 7.5426 22.0735C8.17169 22.3853 8.86994 22.5313 9.57123 22.4978C10.2725 22.4642 10.9536 22.2522 11.5501 21.8819C12.1466 21.5115 12.6386 20.995 12.9797 20.3814C13.3208 19.7677 13.4996 19.0771 13.4992 18.375V15C14.2948 15.5967 15.2949 15.853 16.2795 15.7123C17.264 15.5717 18.1524 15.0456 18.7492 14.25C19.3459 13.4544 19.6021 12.4542 19.4615 11.4697C19.3208 10.4851 18.7948 9.59674 17.9992 9ZM17.9992 6C17.9992 6.59674 17.7621 7.16903 17.3401 7.59099C16.9182 8.01295 16.3459 8.25 15.7492 8.25H13.4992V3.75H15.7492C16.3459 3.75 16.9182 3.98705 17.3401 4.40901C17.7621 4.83097 17.9992 5.40326 17.9992 6ZM6.74915 6C6.74915 5.40326 6.98621 4.83097 7.40816 4.40901C7.83012 3.98705 8.40242 3.75 8.99915 3.75H11.9992V8.25H8.99915C8.40242 8.25 7.83012 8.01295 7.40816 7.59099C6.98621 7.16903 6.74915 6.59674 6.74915 6ZM8.99915 14.25C8.40242 14.25 7.83012 14.0129 7.40816 13.591C6.98621 13.169 6.74915 12.5967 6.74915 12C6.74915 11.4033 6.98621 10.831 7.40816 10.409C7.83012 9.98705 8.40242 9.75 8.99915 9.75H11.9992V14.25H8.99915ZM11.9992 18.375C11.9992 18.8942 11.8452 19.4017 11.5568 19.8334C11.2683 20.2651 10.8584 20.6015 10.3787 20.8002C9.89904 20.9989 9.37124 21.0508 8.86204 20.9496C8.35284 20.8483 7.88511 20.5983 7.518 20.2312C7.15088 19.864 6.90088 19.3963 6.79959 18.8871C6.6983 18.3779 6.75029 17.8501 6.94897 17.3705C7.14765 16.8908 7.4841 16.4808 7.91578 16.1924C8.34746 15.904 8.85498 15.75 9.37415 15.75H11.9992V18.375ZM15.7492 14.25C15.3041 14.25 14.8691 14.118 14.4991 13.8708C14.1291 13.6236 13.8407 13.2722 13.6704 12.861C13.5001 12.4499 13.4556 11.9975 13.5424 11.561C13.6292 11.1246 13.8435 10.7237 14.1582 10.409C14.4728 10.0943 14.8737 9.88005 15.3102 9.79323C15.7467 9.70642 16.1991 9.75097 16.6102 9.92127C17.0213 10.0916 17.3727 10.38 17.62 10.75C17.8672 11.12 17.9992 11.555 17.9992 12C17.9992 12.5967 17.7621 13.169 17.3401 13.591C16.9182 14.0129 16.3459 14.25 15.7492 14.25Z" fill="black"/>
</svg>
