<svg width="24" height="24" viewBox="0 0 24 24" fill="none" xmlns="http://www.w3.org/2000/svg">
<path d="M20.25 11.25V8.25C20.2501 8.15148 20.2307 8.05391 20.1931 7.96286C20.1555 7.87182 20.1003 7.78908 20.0306 7.71938L14.7806 2.46938C14.7109 2.39975 14.6282 2.34454 14.5371 2.3069C14.4461 2.26926 14.3485 2.24992 14.25 2.25H5.25C4.85218 2.25 4.47064 2.40804 4.18934 2.68934C3.90804 2.97064 3.75 3.35218 3.75 3.75V11.25C3.75 11.4489 3.82902 11.6397 3.96967 11.7803C4.11032 11.921 4.30109 12 4.5 12C4.69891 12 4.88968 11.921 5.03033 11.7803C5.17098 11.6397 5.25 11.4489 5.25 11.25V3.75H13.5V8.25C13.5 8.44891 13.579 8.63968 13.7197 8.78033C13.8603 8.92098 14.0511 9 14.25 9H18.75V11.25C18.75 11.4489 18.829 11.6397 18.9697 11.7803C19.1103 11.921 19.3011 12 19.5 12C19.6989 12 19.8897 11.921 20.0303 11.7803C20.171 11.6397 20.25 11.4489 20.25 11.25ZM15 4.81031L17.6897 7.5H15V4.81031ZM6.375 15V19.5C6.375 19.6989 6.29598 19.8897 6.15533 20.0303C6.01468 20.171 5.82391 20.25 5.625 20.25C5.42609 20.25 5.23532 20.171 5.09467 20.0303C4.95402 19.8897 4.875 19.6989 4.875 19.5V18H3V19.5C3 19.6989 2.92098 19.8897 2.78033 20.0303C2.63968 20.171 2.44891 20.25 2.25 20.25C2.05109 20.25 1.86032 20.171 1.71967 20.0303C1.57902 19.8897 1.5 19.6989 1.5 19.5V15C1.5 14.8011 1.57902 14.6103 1.71967 14.4697C1.86032 14.329 2.05109 14.25 2.25 14.25C2.44891 14.25 2.63968 14.329 2.78033 14.4697C2.92098 14.6103 3 14.8011 3 15V16.5H4.875V15C4.875 14.8011 4.95402 14.6103 5.09467 14.4697C5.23532 14.329 5.42609 14.25 5.625 14.25C5.82391 14.25 6.01468 14.329 6.15533 14.4697C6.29598 14.6103 6.375 14.8011 6.375 15ZM11.625 15C11.625 15.1989 11.546 15.3897 11.4053 15.5303C11.2647 15.671 11.0739 15.75 10.875 15.75H10.125V19.5C10.125 19.6989 10.046 19.8897 9.90533 20.0303C9.76468 20.171 9.57391 20.25 9.375 20.25C9.17609 20.25 8.98532 20.171 8.84467 20.0303C8.70402 19.8897 8.625 19.6989 8.625 19.5V15.75H7.875C7.67609 15.75 7.48532 15.671 7.34467 15.5303C7.20402 15.3897 7.125 15.1989 7.125 15C7.125 14.8011 7.20402 14.6103 7.34467 14.4697C7.48532 14.329 7.67609 14.25 7.875 14.25H10.875C11.0739 14.25 11.2647 14.329 11.4053 14.4697C11.546 14.6103 11.625 14.8011 11.625 15ZM18.375 15V19.5C18.375 19.6989 18.296 19.8897 18.1553 20.0303C18.0147 20.171 17.8239 20.25 17.625 20.25C17.4261 20.25 17.2353 20.171 17.0947 20.0303C16.954 19.8897 16.875 19.6989 16.875 19.5V17.25L15.975 18.45C15.9051 18.5431 15.8146 18.6187 15.7104 18.6708C15.6063 18.7229 15.4914 18.75 15.375 18.75C15.2586 18.75 15.1437 18.7229 15.0396 18.6708C14.9354 18.6187 14.8449 18.5431 14.775 18.45L13.875 17.25V19.5C13.875 19.6989 13.796 19.8897 13.6553 20.0303C13.5147 20.171 13.3239 20.25 13.125 20.25C12.9261 20.25 12.7353 20.171 12.5947 20.0303C12.454 19.8897 12.375 19.6989 12.375 19.5V15C12.375 14.8426 12.4245 14.6892 12.5166 14.5615C12.6086 14.4338 12.7385 14.3383 12.8878 14.2885C13.0372 14.2387 13.1984 14.2372 13.3486 14.2841C13.4989 14.331 13.6306 14.4241 13.725 14.55L15.375 16.7503L17.025 14.55C17.1194 14.4241 17.2511 14.331 17.4014 14.2841C17.5516 14.2372 17.7128 14.2387 17.8622 14.2885C18.0115 14.3383 18.1414 14.4338 18.2334 14.5615C18.3255 14.6892 18.375 14.8426 18.375 15ZM23.625 19.5C23.625 19.6989 23.546 19.8897 23.4053 20.0303C23.2647 20.171 23.0739 20.25 22.875 20.25H20.25C20.0511 20.25 19.8603 20.171 19.7197 20.0303C19.579 19.8897 19.5 19.6989 19.5 19.5V15C19.5 14.8011 19.579 14.6103 19.7197 14.4697C19.8603 14.329 20.0511 14.25 20.25 14.25C20.4489 14.25 20.6397 14.329 20.7803 14.4697C20.921 14.6103 21 14.8011 21 15V18.75H22.875C23.0739 18.75 23.2647 18.829 23.4053 18.9697C23.546 19.1103 23.625 19.3011 23.625 19.5Z" fill="black"/>
</svg>
