<svg width="42" height="42" viewBox="0 0 42 42" fill="none" xmlns="http://www.w3.org/2000/svg">
<path fill-rule="evenodd" clip-rule="evenodd" d="M21.3008 34.9201C18.553 34.9201 17.276 34.5172 15.0563 32.9057C13.6523 34.7187 9.2063 36.1355 9.01241 33.7114C9.01241 31.8917 8.61127 30.354 8.15663 28.6753C7.61509 26.6072 7 24.304 7 20.9668C7 12.9963 13.5119 7 21.2273 7C28.9493 7 34.9999 13.2918 34.9999 21.0406C35.0124 24.7046 33.5769 28.2239 31.0086 30.826C28.4403 33.4281 24.9489 34.9006 21.3008 34.9201ZM21.4145 13.8894C17.6571 13.6946 14.7287 16.3067 14.0802 20.4027C13.5453 23.7937 14.4947 27.9233 15.3037 28.1382C15.6915 28.2322 16.6676 27.4398 17.276 26.8288C18.282 27.5268 19.4535 27.946 20.6724 28.0442C22.5439 28.1346 24.376 27.4839 25.775 26.2321C27.1739 24.9802 28.028 23.2271 28.1537 21.3495C28.2269 19.468 27.5617 17.6329 26.3013 16.239C25.041 14.8451 23.2862 14.0038 21.4145 13.8961V13.8894Z" fill="white"/>
</svg>
