<svg width="56" height="56" viewBox="0 0 56 56" fill="none" xmlns="http://www.w3.org/2000/svg">
<path d="M54.2499 20.2737C54.2514 19.8139 54.1614 19.3584 53.9853 18.9337C53.8092 18.5089 53.5504 18.1235 53.224 17.7996L38.2002 2.7737C37.8752 2.44861 37.4893 2.19073 37.0647 2.01479C36.64 1.83885 36.1848 1.74829 35.7251 1.74829C35.2654 1.74829 34.8102 1.83885 34.3855 2.01479C33.9608 2.19073 33.5749 2.44861 33.2499 2.7737L27.0309 8.99276L14.3434 13.755C13.7667 13.97 13.2567 14.3327 12.8644 14.8069C12.472 15.281 12.2111 15.8498 12.1077 16.4565L7.02399 46.9612C6.98204 47.212 6.99523 47.4688 7.06264 47.714C7.13006 47.9591 7.25007 48.1866 7.41435 48.3807C7.57862 48.5747 7.7832 48.7306 8.01385 48.8376C8.2445 48.9445 8.49568 48.9999 8.74992 48.9999C8.84666 48.9995 8.94321 48.9915 9.03867 48.9759L39.5412 43.8921C40.1471 43.791 40.7158 43.5322 41.19 43.1417C41.6642 42.7512 42.0273 42.2427 42.2427 41.6674L47.0049 28.9799L53.224 22.7499C53.5506 22.4258 53.8095 22.0399 53.9856 21.6148C54.1617 21.1897 54.2516 20.7338 54.2499 20.2737ZM38.9659 40.4403L13.8512 44.6249L24.2134 34.2628C25.5076 34.9622 27.0103 35.1725 28.4469 34.8551C29.8834 34.5378 31.1577 33.714 32.0367 32.5343C32.9158 31.3547 33.341 29.8981 33.2344 28.4308C33.1279 26.9635 32.4968 25.5836 31.4565 24.5433C30.4163 23.5031 29.0364 22.872 27.5691 22.7654C26.1018 22.6589 24.6452 23.084 23.4655 23.9631C22.2859 24.8422 21.4621 26.1165 21.1447 27.553C20.8274 28.9895 21.0376 30.4923 21.7371 31.7865L11.3749 42.1531L15.5596 17.0318L27.5624 12.5321L43.4655 28.4374L38.9659 40.4403ZM24.4999 28.8749C24.4999 28.3558 24.6539 27.8483 24.9423 27.4166C25.2308 26.9849 25.6407 26.6484 26.1204 26.4498C26.6 26.2511 27.1278 26.1991 27.637 26.3004C28.1462 26.4017 28.614 26.6517 28.9811 27.0188C29.3482 27.3859 29.5982 27.8536 29.6995 28.3628C29.8008 28.872 29.7488 29.3998 29.5501 29.8795C29.3514 30.3591 29.015 30.7691 28.5833 31.0576C28.1516 31.346 27.6441 31.4999 27.1249 31.4999C26.4287 31.4999 25.7611 31.2234 25.2688 30.7311C24.7765 30.2388 24.4999 29.5711 24.4999 28.8749ZM45.4999 25.5237L30.474 10.4999L35.724 5.24995L50.7499 20.2737L45.4999 25.5237Z" fill="#AA0041"/>
</svg>
