<svg width="40" height="40" viewBox="0 0 40 40" fill="none" xmlns="http://www.w3.org/2000/svg">
<g clip-path="url(#clip0_883_3384)">
<path d="M22.8145 19.3093H8.90075V13.8715H22.8145C23.6272 13.8715 24.1923 14.0114 24.4759 14.2557C24.7595 14.5001 24.9352 14.9532 24.9352 15.6152V17.5677C24.9352 18.2652 24.7595 18.7184 24.4759 18.9627C24.1923 19.207 23.6272 19.3114 22.8145 19.3114V19.3093ZM23.769 8.74477H3V31.9998H8.90075V24.434H19.7752L24.9352 31.9998H31.5429L25.8538 24.3985C27.9512 24.0915 28.893 23.4567 29.6698 22.4104C30.4465 21.3642 30.836 19.6915 30.836 17.4592V15.7154C30.836 14.3915 30.6942 13.3452 30.4465 12.5434C30.1989 11.7414 29.7756 11.044 29.1745 10.4175C28.5396 9.82439 27.8327 9.40675 26.984 9.12691C26.1353 8.88258 25.0749 8.74268 23.769 8.74268V8.74477Z" fill="white"/>
<path d="M35.7715 8.74279C38.107 8.74279 40.0001 6.84958 40.0001 4.51422C40.0001 2.17884 38.107 0.285645 35.7715 0.285645C33.4362 0.285645 31.543 2.17884 31.543 4.51422C31.543 6.84958 33.4362 8.74279 35.7715 8.74279Z" fill="#ED143B"/>
</g>
<defs>
<clipPath id="clip0_883_3384">
<rect width="40" height="40" fill="white"/>
</clipPath>
</defs>
</svg>
