<svg width="56" height="56" viewBox="0 0 56 56" fill="none" xmlns="http://www.w3.org/2000/svg">
<path d="M52.3753 29.0938L45.3753 11.5938C45.2212 11.2083 44.9351 10.8902 44.568 10.6962C44.2009 10.5023 43.7769 10.4451 43.3716 10.535L29.75 13.5625V8.75C29.75 8.28587 29.5657 7.84075 29.2375 7.51256C28.9093 7.18437 28.4642 7 28 7C27.5359 7 27.0908 7.18437 26.7626 7.51256C26.4344 7.84075 26.25 8.28587 26.25 8.75V14.3456L11.8694 17.5416C11.5921 17.6028 11.3339 17.7306 11.1171 17.9139C10.9002 18.0972 10.7313 18.3305 10.6247 18.5938V18.6069L3.62472 36.0938C3.54098 36.3023 3.49863 36.5252 3.50003 36.75C3.50003 41.8491 8.86816 43.75 12.25 43.75C15.6319 43.75 21 41.8491 21 36.75C21.0014 36.5252 20.9591 36.3023 20.8753 36.0938L14.6388 20.5122L26.25 17.9375V45.5H22.75C22.2859 45.5 21.8408 45.6844 21.5126 46.0126C21.1844 46.3408 21 46.7859 21 47.25C21 47.7141 21.1844 48.1592 21.5126 48.4874C21.8408 48.8156 22.2859 49 22.75 49H33.25C33.7142 49 34.1593 48.8156 34.4875 48.4874C34.8157 48.1592 35 47.7141 35 47.25C35 46.7859 34.8157 46.3408 34.4875 46.0126C34.1593 45.6844 33.7142 45.5 33.25 45.5H29.75V17.1544L40.9063 14.6781L35.1247 29.0938C35.041 29.3023 34.9986 29.5252 35 29.75C35 34.8491 40.3682 36.75 43.75 36.75C47.1319 36.75 52.5 34.8491 52.5 29.75C52.5014 29.5252 52.4591 29.3023 52.3753 29.0938ZM12.25 40.25C10.6028 40.25 7.27128 39.4603 7.01535 37.0475L12.25 23.9619L17.4847 37.0475C17.2288 39.4603 13.8972 40.25 12.25 40.25ZM43.75 33.25C42.1028 33.25 38.7713 32.4603 38.5153 30.0475L43.75 16.9619L48.9847 30.0475C48.7288 32.4603 45.3972 33.25 43.75 33.25Z" fill="#E16B3D"/>
</svg>
