<svg width="40" height="40" viewBox="0 0 40 40" fill="none" xmlns="http://www.w3.org/2000/svg">
<path d="M32.3576 7.22954C32.3576 7.22954 35.2253 6.10411 34.9863 8.83729C34.9067 9.96274 34.1898 13.9017 33.6322 18.1623L31.7203 30.7832C31.7203 30.7832 31.5611 32.6321 30.1272 32.9537C28.6933 33.2752 26.5425 31.8283 26.1442 31.5067C25.8255 31.2656 20.1698 27.6481 18.1783 25.8796C17.6206 25.3972 16.9834 24.4325 18.2579 23.3071L26.6222 15.2684C27.5781 14.3037 28.534 12.0528 24.551 14.786L13.3987 22.4229C13.3987 22.4229 12.1242 23.2267 9.73446 22.5033L4.55659 20.8955C4.55659 20.8955 2.64476 19.6897 5.91079 18.4838C13.8767 14.7056 23.6748 10.847 32.3576 7.22954Z" fill="white"/>
</svg>
