<svg width="40" height="40" viewBox="0 0 40 40" fill="none" xmlns="http://www.w3.org/2000/svg">
<g clip-path="url(#clip0_883_3382)">
<path fill-rule="evenodd" clip-rule="evenodd" d="M36.1038 24.4216C36.1038 24.4216 39.3378 27.4943 40.1378 28.9162C40.1543 28.9361 40.1665 28.959 40.1738 28.9836C40.4991 29.5082 40.5811 29.9219 40.4198 30.2246C40.1498 30.7268 39.2358 30.9788 38.9258 31H33.2098C32.8119 31 31.9839 30.8999 30.9759 30.2304C30.2059 29.7128 29.4399 28.8604 28.6979 28.0273C27.5899 26.7901 26.6319 25.7165 25.6619 25.7165C25.5396 25.7179 25.4182 25.7374 25.3019 25.7742C24.5679 25.9974 23.6359 27.0037 23.6359 29.6839C23.6359 30.5228 22.948 31 22.466 31H19.848C18.956 31 14.312 30.6998 10.1941 26.5227C5.14813 21.4084 0.616179 11.1492 0.572179 11.0588C0.290182 10.395 0.882176 10.0332 1.52217 10.0332H7.29411C8.0681 10.0332 8.3201 10.4835 8.4961 10.8875C8.7001 11.3512 9.45609 13.2061 10.6961 15.2898C12.7041 18.6801 13.938 20.0596 14.924 20.0596C15.1092 20.0599 15.2913 20.0135 15.452 19.925C16.74 19.2438 16.5 14.8184 16.44 13.9064C16.44 13.7294 16.438 11.9304 15.778 11.0607C15.306 10.4373 14.502 10.1949 14.016 10.1063C14.146 9.92549 14.422 9.64842 14.776 9.48487C15.658 9.06157 17.252 9 18.834 9H19.712C21.428 9.02309 21.872 9.12891 22.496 9.28092C23.7519 9.56953 23.7759 10.3526 23.6659 13.0194C23.6339 13.7814 23.5999 14.6395 23.5999 15.6496C23.5999 15.8651 23.5899 16.1056 23.5899 16.35C23.5519 17.718 23.5019 19.2592 24.5059 19.8923C24.6357 19.9713 24.7864 20.0127 24.9399 20.0115C25.2879 20.0115 26.3299 20.0115 29.1559 15.3456C30.3959 13.2849 31.3559 10.8548 31.4219 10.672C31.4779 10.5701 31.6459 10.2834 31.8499 10.1679C31.9956 10.0953 32.1577 10.0583 32.3219 10.0602H39.1118C39.8518 10.0602 40.3538 10.1679 40.4518 10.4373C40.6158 10.8741 40.4198 12.2075 37.3198 16.2403C36.7978 16.9118 36.3398 17.4929 35.9378 18.0009C33.1278 21.5489 33.1278 21.7278 36.1038 24.4216Z" fill="white"/>
</g>
<defs>
<clipPath id="clip0_883_3382">
<rect width="40" height="40" fill="white"/>
</clipPath>
</defs>
</svg>
