<svg width="56" height="56" viewBox="0 0 56 56" fill="none" xmlns="http://www.w3.org/2000/svg">
<path d="M50.6734 42.5579L43.4131 8.03916C43.3192 7.58775 43.1371 7.15934 42.8771 6.77854C42.6171 6.39775 42.2845 6.07207 41.8983 5.82022C41.5121 5.56837 41.0799 5.39531 40.6266 5.31099C40.1733 5.22666 39.7078 5.23273 39.2569 5.32884L29.0172 7.52947C28.1115 7.72779 27.3207 8.2757 26.8168 9.05403C26.3129 9.83237 26.1367 10.7782 26.3266 11.6857L33.5869 46.2045C33.7487 46.992 34.1767 47.6998 34.7989 48.209C35.4212 48.7181 36.1998 48.9974 37.0038 49.0001C37.2523 48.9998 37.5001 48.9734 37.7431 48.9213L47.9828 46.7207C48.8896 46.5219 49.6812 45.9729 50.1852 45.1933C50.6891 44.4136 50.8646 43.4664 50.6734 42.5579ZM29.75 10.9704C29.75 10.9573 29.75 10.9507 29.75 10.9507L39.9875 8.76322L40.7159 12.2348L30.4784 14.4376L29.75 10.9704ZM31.1981 17.8545L41.44 15.656L42.1706 19.1342L31.9375 21.3348L31.1981 17.8545ZM32.6506 24.7604L42.8925 22.5598L45.8019 36.3935L35.56 38.5942L32.6506 24.7604ZM47.25 43.2995L37.0125 45.487L36.2841 42.0154L46.5216 39.8126L47.25 43.2798C47.25 43.2929 47.25 43.2995 47.25 43.2995ZM22.75 7.00009H12.25C11.3217 7.00009 10.4315 7.36884 9.77513 8.02522C9.11875 8.6816 8.75 9.57184 8.75 10.5001V45.5001C8.75 46.4283 9.11875 47.3186 9.77513 47.975C10.4315 48.6313 11.3217 49.0001 12.25 49.0001H22.75C23.6783 49.0001 24.5685 48.6313 25.2249 47.975C25.8813 47.3186 26.25 46.4283 26.25 45.5001V10.5001C26.25 9.57184 25.8813 8.6816 25.2249 8.02522C24.5685 7.36884 23.6783 7.00009 22.75 7.00009ZM12.25 10.5001H22.75V14.0001H12.25V10.5001ZM12.25 17.5001H22.75V38.5001H12.25V17.5001ZM22.75 45.5001H12.25V42.0001H22.75V45.5001Z" fill="#7161D6"/>
</svg>
