<svg width="24" height="24" viewBox="0 0 24 24" fill="none" xmlns="http://www.w3.org/2000/svg">
<path d="M21.4198 5.85148L12.4198 2.85148C12.2658 2.80016 12.0994 2.80016 11.9454 2.85148L2.94543 5.85148C2.79609 5.90126 2.6662 5.99678 2.57416 6.12449C2.48213 6.25219 2.43261 6.40563 2.43262 6.56304V14.063C2.43262 14.262 2.51163 14.4527 2.65229 14.5934C2.79294 14.734 2.9837 14.813 3.18262 14.813C3.38153 14.813 3.57229 14.734 3.71295 14.5934C3.8536 14.4527 3.93262 14.262 3.93262 14.063V7.60367L7.08168 8.65273C6.24501 10.0044 5.97896 11.6329 6.34193 13.1806C6.7049 14.7283 7.66723 16.0686 9.01762 16.9074C7.33012 17.5693 5.87137 18.7665 4.80449 20.4034C4.74901 20.4858 4.71047 20.5785 4.69111 20.676C4.67176 20.7735 4.67197 20.8738 4.69175 20.9713C4.71153 21.0687 4.75047 21.1612 4.80631 21.2434C4.86215 21.3256 4.93377 21.3959 5.01703 21.4502C5.10028 21.5045 5.19349 21.5417 5.29125 21.5597C5.38901 21.5776 5.48936 21.576 5.58648 21.5548C5.68359 21.5337 5.77553 21.4934 5.85695 21.4364C5.93837 21.3794 6.00764 21.3068 6.06074 21.2227C7.47355 19.0552 9.7048 17.813 12.1826 17.813C14.6604 17.813 16.8917 19.0552 18.3045 21.2227C18.4145 21.3862 18.5844 21.4999 18.7775 21.5391C18.9706 21.5783 19.1714 21.5399 19.3365 21.4322C19.5015 21.3246 19.6176 21.1563 19.6595 20.9638C19.7015 20.7712 19.666 20.5699 19.5607 20.4034C18.4939 18.7665 17.0295 17.5693 15.3476 16.9074C16.6967 16.0687 17.6581 14.7292 18.021 13.1826C18.3839 11.6361 18.1187 10.0087 17.2836 8.65742L21.4198 7.27929C21.5692 7.22954 21.6991 7.13404 21.7912 7.00633C21.8832 6.87862 21.9328 6.72517 21.9328 6.56773C21.9328 6.41029 21.8832 6.25685 21.7912 6.12913C21.6991 6.00142 21.5692 5.90592 21.4198 5.85617V5.85148ZM16.6826 11.813C16.6828 12.5245 16.5143 13.2258 16.191 13.8595C15.8677 14.4932 15.3987 15.0412 14.8226 15.4586C14.2464 15.876 13.5795 16.1508 12.8766 16.2605C12.1737 16.3702 11.4548 16.3117 10.7788 16.0898C10.1029 15.8678 9.48925 15.4888 8.98817 14.9838C8.48709 14.4788 8.1129 13.8621 7.89628 13.1845C7.67967 12.5068 7.62681 11.7875 7.74204 11.0854C7.85727 10.3834 8.13731 9.7187 8.55918 9.14586L11.9454 10.2709C12.0994 10.3222 12.2658 10.3222 12.4198 10.2709L15.8061 9.14586C16.3759 9.91835 16.6831 10.8531 16.6826 11.813ZM12.1826 8.77273L5.55449 6.56304L12.1826 4.35336L18.8107 6.56304L12.1826 8.77273Z" fill="black"/>
</svg>
