<svg width="293" height="33" viewBox="0 0 293 33" fill="none" xmlns="http://www.w3.org/2000/svg">
<path fill-rule="evenodd" clip-rule="evenodd" d="M28.3694 2.89484H0V31.7429H12.491V17.1035H15.8785V31.7429H28.3694V2.89484Z" fill="white"/>
<path fill-rule="evenodd" clip-rule="evenodd" d="M40.1387 3.84009H48.054V12.9234H45.9109V5.74769H42.2832V12.9234H40.1387V3.84009Z" fill="white"/>
<path fill-rule="evenodd" clip-rule="evenodd" d="M52.3109 7.21917H56.9553C56.7067 6.07468 55.9371 5.47507 54.7054 5.47507C53.3824 5.47507 52.5609 6.07468 52.3109 7.21917ZM54.6872 3.65796C57.2769 3.65796 59.0633 5.40207 59.0633 7.96398C59.0633 8.27285 59.0283 8.61733 58.9749 8.94464H52.2392C52.4176 10.489 53.3825 11.1979 54.7223 11.1979C55.9189 11.1979 56.7952 10.6525 57.0283 9.83499L59.01 10.1987C58.6167 12.0333 56.8317 13.1055 54.7223 13.1055C51.8109 13.1055 50.0596 11.125 50.0596 8.41805C50.0596 5.67499 51.971 3.65796 54.6872 3.65796Z" fill="white"/>
<path fill-rule="evenodd" clip-rule="evenodd" d="M63.2848 8.38174C63.2848 10.0169 64.2679 11.1067 65.7509 11.1067C67.234 11.1067 68.2157 10.0169 68.2157 8.38174C68.2157 6.74692 67.234 5.65683 65.7509 5.65683C64.2679 5.65683 63.2848 6.74692 63.2848 8.38174ZM63.1064 3.84035L63.2131 4.94827C63.928 4.13061 64.9111 3.65808 66.0711 3.65808C68.5556 3.65808 70.4487 5.65683 70.4487 8.38174C70.4487 11.1067 68.5556 13.1056 66.0711 13.1056C64.9476 13.1056 63.9996 12.651 63.2848 11.8884V16.9203H61.1416V3.84035H63.1064Z" fill="white"/>
<path fill-rule="evenodd" clip-rule="evenodd" d="M72.4561 3.84009H74.6526L77.4937 7.78189L80.2998 3.84009H82.4963V12.9234H80.4416V6.78274L77.7086 10.6164H77.2437L74.5093 6.81933V12.9234H72.4561V3.84009Z" fill="white"/>
<path fill-rule="evenodd" clip-rule="evenodd" d="M89.1291 11.1067C90.3074 11.1067 91.0756 10.4532 91.3087 9.45389L93.362 9.81698C93.0587 11.688 91.3438 13.1056 89.1108 13.1056C86.4494 13.1056 84.5015 11.1067 84.5015 8.40038C84.5015 5.65683 86.4677 3.65808 89.1291 3.65808C91.3087 3.65808 92.8985 4.94827 93.31 6.89229L91.2189 7.25523C90.9857 6.2561 90.2189 5.65683 89.1642 5.65683C87.7359 5.65683 86.7345 6.71082 86.7345 8.40038C86.7345 10.0532 87.6993 11.1067 89.1291 11.1067Z" fill="white"/>
<path fill-rule="evenodd" clip-rule="evenodd" d="M97.2809 3.84009V7.18292H98.2471L100.855 3.84009H103.411L99.9451 8.10922L103.588 12.9234H100.998L98.2288 9.29013H97.2809V12.9234H95.1377V3.84009H97.2809Z" fill="white"/>
<path fill-rule="evenodd" clip-rule="evenodd" d="M105.021 3.84009H107.093V9.81671L110.934 3.84009H113.007V12.9234H110.934V6.94641L107.093 12.9234H105.021V3.84009Z" fill="white"/>
<path fill-rule="evenodd" clip-rule="evenodd" d="M122.696 0C122.673 1.59216 121.495 2.6593 119.766 2.6593C118.037 2.6593 116.859 1.59216 116.837 0H118.73C118.734 0.683206 119.126 1.02448 119.748 1.02448C120.388 1.02448 120.78 0.683206 120.803 0H122.696ZM115.693 3.84055H117.765V9.81717L121.606 3.84055H123.679V12.9238H121.606V6.94687L117.765 12.9238H115.693V3.84055Z" fill="white"/>
<path fill-rule="evenodd" clip-rule="evenodd" d="M40.1387 22.6589H48.054V31.7423H45.9109V24.5668H42.2832V31.7423H40.1387V22.6589Z" fill="white"/>
<path fill-rule="evenodd" clip-rule="evenodd" d="M52.2926 27.2013C52.2926 28.8361 53.294 29.9262 54.7939 29.9262C56.2952 29.9262 57.2952 28.8361 57.2952 27.2013C57.2952 25.5661 56.2952 24.4764 54.7939 24.4764C53.294 24.4764 52.2926 25.5661 52.2926 27.2013ZM59.5282 27.2013C59.5282 29.9262 57.5269 31.9248 54.7939 31.9248C52.0595 31.9248 50.0596 29.9262 50.0596 27.2013C50.0596 24.4764 52.0595 22.4778 54.7939 22.4778C57.5269 22.4778 59.5282 24.4764 59.5282 27.2013Z" fill="white"/>
<path fill-rule="evenodd" clip-rule="evenodd" d="M60.874 29.9259C61.7139 29.9259 61.9821 29.5625 62.124 25.7841L62.2504 22.6591H69.1995V31.7424H67.0563V24.5669H64.3219L64.2503 26.2562C64.0733 30.5615 63.3585 31.9247 61.1957 31.9247C60.8207 31.9247 60.5875 31.87 60.2842 31.7786L60.5356 29.8898C60.6423 29.9079 60.7308 29.9259 60.874 29.9259Z" fill="white"/>
<path fill-rule="evenodd" clip-rule="evenodd" d="M71.8828 22.6589H73.9557V28.6362L77.7969 22.6589H79.8684V31.7423H77.7969V25.7657L73.9557 31.7423H71.8828V22.6589Z" fill="white"/>
<path fill-rule="evenodd" clip-rule="evenodd" d="M84.4303 24.5668H81.5723V22.6589H89.4328V24.5668H86.5734V31.7423H84.4303V24.5668Z" fill="white"/>
<path fill-rule="evenodd" clip-rule="evenodd" d="M92.705 26.0385H97.3494C97.1008 24.8945 96.3312 24.2945 95.0995 24.2945C93.778 24.2945 92.9564 24.8945 92.705 26.0385ZM95.0813 22.4778C97.6724 22.4778 99.4589 24.2215 99.4589 26.7833C99.4589 27.0921 99.4223 27.4371 99.369 27.7643H92.6348C92.8131 29.3082 93.778 30.0174 95.1178 30.0174C96.3144 30.0174 97.1907 29.4719 97.4224 28.6543L99.4055 29.0182C99.0109 30.8527 97.2244 31.9248 95.1178 31.9248C92.205 31.9248 90.4551 29.9445 90.4551 27.2374C90.4551 24.4942 92.3651 22.4778 95.0813 22.4778Z" fill="white"/>
<path fill-rule="evenodd" clip-rule="evenodd" d="M104.591 25.4384L106.377 22.6589H108.754L105.77 27.1465L108.95 31.7423H106.431L104.341 28.745L102.483 31.7423H100.177L103.144 27.0192L100.106 22.6589H102.661L104.591 25.4384Z" fill="white"/>
<path d="M149.025 14.0606L146.983 10.9805L147.888 10.3934L150.292 14.0606H149.025ZM145.036 14.0606V7.73778H146.139V14.0606H145.036ZM145.803 11.396V10.3843H147.836V11.396H145.803ZM147.991 11.0347L146.966 10.8902L149.025 7.73778H150.214L147.991 11.0347Z" fill="white"/>
<path d="M150.184 14.0606L152.898 7.73778H154.001L156.724 14.0606H155.552L153.217 8.36103H153.665L151.339 14.0606H150.184ZM151.433 12.5973L151.735 11.676H154.992L155.293 12.5973H151.433Z" fill="white"/>
<path d="M160.631 13.6541C159.873 13.6541 159.227 13.5457 158.693 13.329C158.164 13.1122 157.76 12.799 157.478 12.3896C157.197 11.9741 157.056 11.4743 157.056 10.8902C157.056 10.294 157.197 9.79119 157.478 9.38171C157.76 8.97223 158.164 8.6591 158.693 8.44232C159.227 8.22554 159.873 8.11715 160.631 8.11715C160.643 8.11715 160.669 8.11715 160.709 8.11715C160.755 8.11715 160.798 8.11715 160.838 8.11715C160.884 8.11715 160.91 8.11715 160.916 8.11715C161.668 8.11715 162.309 8.22554 162.837 8.44232C163.366 8.6591 163.768 8.97524 164.043 9.39074C164.319 9.80022 164.457 10.3 164.457 10.8902C164.457 11.4682 164.319 11.965 164.043 12.3805C163.773 12.796 163.377 13.1122 162.854 13.329C162.337 13.5457 161.706 13.6541 160.959 13.6541C160.947 13.6541 160.916 13.6541 160.864 13.6541C160.818 13.6541 160.769 13.6541 160.718 13.6541C160.672 13.6541 160.643 13.6541 160.631 13.6541ZM160.743 12.7418C160.755 12.7418 160.772 12.7418 160.795 12.7418C160.818 12.7418 160.833 12.7418 160.838 12.7418C161.395 12.7358 161.861 12.6636 162.234 12.5251C162.613 12.3866 162.897 12.1818 163.087 11.9108C163.282 11.6338 163.38 11.2906 163.38 10.8811C163.38 10.4716 163.282 10.1314 163.087 9.86044C162.892 9.58946 162.607 9.38472 162.234 9.24622C161.861 9.10772 161.401 9.03847 160.855 9.03847C160.85 9.03847 160.833 9.03847 160.804 9.03847C160.775 9.03847 160.755 9.03847 160.743 9.03847C160.175 9.03847 159.695 9.10772 159.305 9.24622C158.92 9.3787 158.63 9.58344 158.434 9.86044C158.245 10.1314 158.15 10.4747 158.15 10.8902C158.15 11.3057 158.251 11.6519 158.452 11.9289C158.658 12.1999 158.954 12.4046 159.339 12.5431C159.724 12.6756 160.192 12.7418 160.743 12.7418ZM160.244 14.3135V7.48486H161.278V14.3135H160.244Z" fill="white"/>
<path d="M166.667 10.3663H169.665V11.3328H166.667V10.3663ZM166.753 13.076H170.156V14.0606H165.633V7.73778H170.036V8.72233H166.753V13.076Z" fill="white"/>
<path d="M175.412 13.5186V8.73136H173.051L173.008 9.85141C172.99 10.2729 172.965 10.6734 172.93 11.0527C172.901 11.4261 172.853 11.7663 172.784 12.0734C172.72 12.3805 172.631 12.6365 172.517 12.8412C172.402 13.0459 172.261 13.1814 172.094 13.2477L170.888 13.067C171.106 13.0791 171.285 13.0008 171.422 12.8322C171.566 12.6636 171.678 12.4287 171.758 12.1276C171.839 11.8265 171.899 11.4743 171.939 11.0708C171.98 10.6613 172.008 10.2187 172.025 9.74301L172.094 7.73778H176.514V13.5186H175.412ZM170.681 15.4065L170.69 13.067H177.385V15.4065H176.351V14.0606H171.724V15.4065H170.681Z" fill="white"/>
<path d="M178.439 14.0606V7.73778H180.921C181.455 7.73778 181.911 7.8281 182.29 8.00875C182.675 8.18941 182.971 8.44834 183.178 8.78556C183.385 9.12278 183.488 9.52322 183.488 9.98689C183.488 10.4506 183.385 10.851 183.178 11.1882C182.971 11.5254 182.675 11.7844 182.29 11.965C181.911 12.1457 181.455 12.236 180.921 12.236H179.06L179.559 11.685V14.0606H178.439ZM179.559 11.8115L179.06 11.2424H180.869C181.363 11.2424 181.733 11.134 181.98 10.9173C182.233 10.6944 182.359 10.3843 182.359 9.98689C182.359 9.58344 182.233 9.27332 181.98 9.05654C181.733 8.83975 181.363 8.73136 180.869 8.73136H179.06L179.559 8.15328V11.8115Z" fill="white"/>
<path d="M183.478 14.0606L186.192 7.73778H187.295L190.017 14.0606H188.846L186.511 8.36103H186.959L184.632 14.0606H183.478ZM184.727 12.5973L185.029 11.676H188.286L188.587 12.5973H184.727Z" fill="white"/>
<path d="M193.332 14.0606V7.73778H197.425L197.416 8.73136H194.168L194.426 8.45135L194.435 14.0606H193.332Z" fill="white"/>
<path d="M200.474 14.1509C200.003 14.1509 199.569 14.0696 199.173 13.907C198.776 13.7445 198.432 13.5186 198.139 13.2296C197.846 12.9345 197.619 12.5913 197.458 12.1999C197.297 11.8024 197.217 11.3689 197.217 10.8992C197.217 10.4295 197.297 9.99894 197.458 9.60752C197.619 9.21009 197.846 8.86685 198.139 8.57781C198.432 8.28274 198.776 8.05392 199.173 7.89133C199.569 7.72874 200 7.64745 200.465 7.64745C200.936 7.64745 201.367 7.72874 201.757 7.89133C202.154 8.05392 202.498 8.28274 202.791 8.57781C203.084 8.86685 203.311 9.21009 203.472 9.60752C203.633 9.99894 203.713 10.4295 203.713 10.8992C203.713 11.3689 203.633 11.8024 203.472 12.1999C203.311 12.5973 203.084 12.9406 202.791 13.2296C202.498 13.5186 202.154 13.7445 201.757 13.907C201.367 14.0696 200.939 14.1509 200.474 14.1509ZM200.465 13.1212C200.769 13.1212 201.051 13.067 201.309 12.9586C201.568 12.8502 201.792 12.6967 201.981 12.498C202.171 12.2932 202.317 12.0584 202.421 11.7934C202.53 11.5224 202.584 11.2244 202.584 10.8992C202.584 10.574 202.53 10.2789 202.421 10.014C202.317 9.74301 202.171 9.50817 201.981 9.30945C201.792 9.10471 201.568 8.94815 201.309 8.83975C201.051 8.73136 200.769 8.67717 200.465 8.67717C200.161 8.67717 199.879 8.73136 199.621 8.83975C199.368 8.94815 199.144 9.10471 198.949 9.30945C198.759 9.50817 198.61 9.74301 198.501 10.014C198.397 10.2789 198.345 10.574 198.345 10.8992C198.345 11.2183 198.397 11.5134 198.501 11.7844C198.61 12.0554 198.759 12.2932 198.949 12.498C199.138 12.6967 199.362 12.8502 199.621 12.9586C199.879 13.067 200.161 13.1212 200.465 13.1212Z" fill="white"/>
<path d="M207.726 14.1509C207.266 14.1509 206.838 14.0726 206.442 13.9161C206.051 13.7535 205.71 13.5277 205.417 13.2386C205.13 12.9436 204.905 12.5973 204.745 12.1999C204.584 11.8024 204.503 11.3689 204.503 10.8992C204.503 10.4295 204.584 9.99593 204.745 9.59849C204.905 9.20106 205.132 8.85782 205.425 8.56878C205.718 8.27371 206.06 8.0479 206.451 7.89133C206.841 7.72874 207.269 7.64745 207.734 7.64745C208.228 7.64745 208.679 7.73778 209.087 7.91843C209.495 8.09306 209.84 8.355 210.121 8.70426L209.397 9.41784C209.179 9.17095 208.935 8.98729 208.665 8.86685C208.395 8.7404 208.102 8.67717 207.786 8.67717C207.47 8.67717 207.18 8.73136 206.916 8.83975C206.657 8.94815 206.431 9.1017 206.235 9.30042C206.046 9.49913 205.896 9.73398 205.787 10.005C205.684 10.2759 205.632 10.574 205.632 10.8992C205.632 11.2244 205.684 11.5224 205.787 11.7934C205.896 12.0644 206.046 12.2992 206.235 12.498C206.431 12.6967 206.657 12.8502 206.916 12.9586C207.18 13.067 207.47 13.1212 207.786 13.1212C208.102 13.1212 208.395 13.061 208.665 12.9406C208.935 12.8141 209.179 12.6244 209.397 12.3715L210.121 13.0941C209.84 13.4373 209.495 13.6993 209.087 13.8799C208.679 14.0606 208.225 14.1509 207.726 14.1509Z" fill="white"/>
<path d="M211.121 13.067C211.437 13.1814 211.715 13.2115 211.957 13.1573C212.198 13.1031 212.413 12.9195 212.603 12.6063L212.896 12.1276L213.008 12.0012L215.11 7.73778H216.213L213.594 12.8412C213.381 13.2687 213.128 13.5939 212.835 13.8167C212.542 14.0395 212.227 14.163 211.888 14.1871C211.555 14.2172 211.207 14.1509 210.845 13.9883L211.121 13.067ZM212.982 13.0128L210.294 7.73778H211.491L213.594 12.1096L212.982 13.0128Z" fill="white"/>
<path d="M220.914 13.5186V8.73136H218.553L218.51 9.85141C218.493 10.2729 218.467 10.6734 218.433 11.0527C218.404 11.4261 218.355 11.7663 218.286 12.0734C218.223 12.3805 218.134 12.6365 218.019 12.8412C217.904 13.0459 217.763 13.1814 217.597 13.2477L216.391 13.067C216.609 13.0791 216.787 13.0008 216.925 12.8322C217.068 12.6636 217.18 12.4287 217.261 12.1276C217.341 11.8265 217.402 11.4743 217.442 11.0708C217.482 10.6613 217.511 10.2187 217.528 9.74301L217.597 7.73778H222.017V13.5186H220.914ZM216.184 15.4065L216.193 13.067H222.887V15.4065H221.853V14.0606H217.226V15.4065H216.184Z" fill="white"/>
<path d="M223.183 14.0606L225.897 7.73778H227L229.723 14.0606H228.551L226.216 8.36103H226.664L224.338 14.0606H223.183ZM224.433 12.5973L224.734 11.676H227.991L228.292 12.5973H224.433Z" fill="white"/>
<path d="M230.648 14.0606V7.73778H233.129C233.663 7.73778 234.12 7.8281 234.499 8.00875C234.884 8.18941 235.18 8.44834 235.386 8.78556C235.593 9.12278 235.696 9.52322 235.696 9.98689C235.696 10.4506 235.593 10.851 235.386 11.1882C235.18 11.5254 234.884 11.7844 234.499 11.965C234.12 12.1457 233.663 12.236 233.129 12.236H231.268L231.768 11.685V14.0606H230.648ZM231.768 11.8115L231.268 11.2424H233.077C233.571 11.2424 233.942 11.134 234.189 10.9173C234.441 10.6944 234.568 10.3843 234.568 9.98689C234.568 9.58344 234.441 9.27332 234.189 9.05654C233.942 8.83975 233.571 8.73136 233.077 8.73136H231.268L231.768 8.15328V11.8115Z" fill="white"/>
<path d="M239.615 14.1509C239.155 14.1509 238.727 14.0726 238.331 13.9161C237.94 13.7535 237.598 13.5277 237.305 13.2386C237.018 12.9436 236.794 12.5973 236.633 12.1999C236.473 11.8024 236.392 11.3689 236.392 10.8992C236.392 10.4295 236.473 9.99593 236.633 9.59849C236.794 9.20106 237.021 8.85782 237.314 8.56878C237.607 8.27371 237.949 8.0479 238.339 7.89133C238.73 7.72874 239.158 7.64745 239.623 7.64745C240.117 7.64745 240.568 7.73778 240.976 7.91843C241.384 8.09306 241.728 8.355 242.01 8.70426L241.286 9.41784C241.068 9.17095 240.824 8.98729 240.554 8.86685C240.284 8.7404 239.991 8.67717 239.675 8.67717C239.359 8.67717 239.069 8.73136 238.805 8.83975C238.546 8.94815 238.319 9.1017 238.124 9.30042C237.934 9.49913 237.785 9.73398 237.676 10.005C237.573 10.2759 237.521 10.574 237.521 10.8992C237.521 11.2244 237.573 11.5224 237.676 11.7934C237.785 12.0644 237.934 12.2992 238.124 12.498C238.319 12.6967 238.546 12.8502 238.805 12.9586C239.069 13.067 239.359 13.1212 239.675 13.1212C239.991 13.1212 240.284 13.061 240.554 12.9406C240.824 12.8141 241.068 12.6244 241.286 12.3715L242.01 13.0941C241.728 13.4373 241.384 13.6993 240.976 13.8799C240.568 14.0606 240.114 14.1509 239.615 14.1509Z" fill="white"/>
<path d="M244.249 14.0606V8.44232L244.516 8.73136H242.259V7.73778H247.359V8.73136H245.102L245.36 8.44232V14.0606H244.249Z" fill="white"/>
<path d="M248.334 14.0606V7.73778H251.031C251.708 7.73778 252.237 7.87929 252.616 8.16231C252.995 8.43931 253.185 8.83975 253.185 9.36364C253.185 9.88151 253.004 10.282 252.642 10.565C252.28 10.842 251.803 10.9805 251.212 10.9805L251.367 10.6553C252.039 10.6553 252.558 10.7968 252.926 11.0798C253.294 11.3629 253.478 11.7723 253.478 12.3083C253.478 12.8563 253.285 13.2868 252.9 13.5999C252.515 13.907 251.947 14.0606 251.194 14.0606H248.334ZM249.437 13.1573H251.16C251.55 13.1573 251.846 13.0821 252.047 12.9315C252.248 12.775 252.349 12.5371 252.349 12.2179C252.349 11.8988 252.248 11.667 252.047 11.5224C251.846 11.3719 251.55 11.2966 251.16 11.2966H249.437V13.1573ZM249.437 10.4385H250.936C251.298 10.4385 251.573 10.3633 251.763 10.2127C251.953 10.0561 252.047 9.83334 252.047 9.5443C252.047 9.24321 251.953 9.01739 251.763 8.86685C251.573 8.71631 251.298 8.64104 250.936 8.64104H249.437V10.4385Z" fill="white"/>
<path d="M255.787 10.3663H258.786V11.3328H255.787V10.3663ZM255.874 13.076H259.277V14.0606H254.753V7.73778H259.156V8.72233H255.874V13.076Z" fill="white"/>
<path d="M264.764 7.73778H265.884V14.0606H264.764V7.73778ZM261.645 14.0606H260.525V7.73778H261.645V14.0606ZM264.851 11.3508H261.551V10.3482H264.851V11.3508Z" fill="white"/>
<path d="M271.815 7.73778H272.935V14.0606H271.815V7.73778ZM268.696 14.0606H267.576V7.73778H268.696V14.0606ZM271.901 11.3508H268.602V10.3482H271.901V11.3508Z" fill="white"/>
<path d="M277.427 14.1509C276.956 14.1509 276.523 14.0696 276.126 13.907C275.73 13.7445 275.385 13.5186 275.092 13.2296C274.799 12.9345 274.573 12.5913 274.412 12.1999C274.251 11.8024 274.171 11.3689 274.171 10.8992C274.171 10.4295 274.251 9.99894 274.412 9.60752C274.573 9.21009 274.799 8.86685 275.092 8.57781C275.385 8.28274 275.73 8.05392 276.126 7.89133C276.523 7.72874 276.953 7.64745 277.419 7.64745C277.89 7.64745 278.32 7.72874 278.711 7.89133C279.107 8.05392 279.452 8.28274 279.745 8.57781C280.038 8.86685 280.265 9.21009 280.426 9.60752C280.586 9.99894 280.667 10.4295 280.667 10.8992C280.667 11.3689 280.586 11.8024 280.426 12.1999C280.265 12.5973 280.038 12.9406 279.745 13.2296C279.452 13.5186 279.107 13.7445 278.711 13.907C278.32 14.0696 277.893 14.1509 277.427 14.1509ZM277.419 13.1212C277.723 13.1212 278.005 13.067 278.263 12.9586C278.522 12.8502 278.746 12.6967 278.935 12.498C279.125 12.2932 279.271 12.0584 279.374 11.7934C279.484 11.5224 279.538 11.2244 279.538 10.8992C279.538 10.574 279.484 10.2789 279.374 10.014C279.271 9.74301 279.125 9.50817 278.935 9.30945C278.746 9.10471 278.522 8.94815 278.263 8.83975C278.005 8.73136 277.723 8.67717 277.419 8.67717C277.114 8.67717 276.833 8.73136 276.574 8.83975C276.322 8.94815 276.098 9.10471 275.902 9.30945C275.713 9.50817 275.563 9.74301 275.454 10.014C275.351 10.2789 275.299 10.574 275.299 10.8992C275.299 11.2183 275.351 11.5134 275.454 11.7844C275.563 12.0554 275.713 12.2932 275.902 12.498C276.092 12.6967 276.316 12.8502 276.574 12.9586C276.833 13.067 277.114 13.1212 277.419 13.1212Z" fill="white"/>
<path d="M281.914 14.0606V7.73778H286.006L285.998 8.73136H282.75L283.008 8.45135L283.017 14.0606H281.914Z" fill="white"/>
<path d="M289.055 14.1509C288.584 14.1509 288.151 14.0696 287.754 13.907C287.358 13.7445 287.013 13.5186 286.72 13.2296C286.428 12.9345 286.201 12.5913 286.04 12.1999C285.879 11.8024 285.799 11.3689 285.799 10.8992C285.799 10.4295 285.879 9.99894 286.04 9.60752C286.201 9.21009 286.428 8.86685 286.72 8.57781C287.013 8.28274 287.358 8.05392 287.754 7.89133C288.151 7.72874 288.581 7.64745 289.047 7.64745C289.518 7.64745 289.949 7.72874 290.339 7.89133C290.735 8.05392 291.08 8.28274 291.373 8.57781C291.666 8.86685 291.893 9.21009 292.054 9.60752C292.215 9.99894 292.295 10.4295 292.295 10.8992C292.295 11.3689 292.215 11.8024 292.054 12.1999C291.893 12.5973 291.666 12.9406 291.373 13.2296C291.08 13.5186 290.735 13.7445 290.339 13.907C289.949 14.0696 289.521 14.1509 289.055 14.1509ZM289.047 13.1212C289.351 13.1212 289.633 13.067 289.891 12.9586C290.15 12.8502 290.374 12.6967 290.563 12.498C290.753 12.2932 290.899 12.0584 291.003 11.7934C291.112 11.5224 291.166 11.2244 291.166 10.8992C291.166 10.574 291.112 10.2789 291.003 10.014C290.899 9.74301 290.753 9.50817 290.563 9.30945C290.374 9.10471 290.15 8.94815 289.891 8.83975C289.633 8.73136 289.351 8.67717 289.047 8.67717C288.742 8.67717 288.461 8.73136 288.202 8.83975C287.95 8.94815 287.726 9.10471 287.53 9.30945C287.341 9.50817 287.191 9.74301 287.082 10.014C286.979 10.2789 286.927 10.574 286.927 10.8992C286.927 11.2183 286.979 11.5134 287.082 11.7844C287.191 12.0554 287.341 12.2932 287.53 12.498C287.72 12.6967 287.944 12.8502 288.202 12.9586C288.461 13.067 288.742 13.1212 289.047 13.1212Z" fill="white"/>
<path d="M145.122 24.3578C145.438 24.4722 145.717 24.5023 145.958 24.4481C146.199 24.3939 146.414 24.2102 146.604 23.8971L146.897 23.4184L147.009 23.2919L149.111 19.0285H150.214L147.595 24.132C147.382 24.5595 147.13 24.8847 146.837 25.1075C146.544 25.3303 146.228 25.4537 145.889 25.4778C145.556 25.5079 145.208 25.4417 144.846 25.2791L145.122 24.3578ZM146.983 24.3036L144.295 19.0285H145.493L147.595 23.4003L146.983 24.3036Z" fill="white"/>
<path d="M151.002 25.3514V19.0285H156.335V25.3514H155.232V19.7331L155.49 20.0221H151.846L152.104 19.7331V25.3514H151.002Z" fill="white"/>
<path d="M158.035 25.3514V19.0285H160.517C161.051 19.0285 161.508 19.1189 161.887 19.2995C162.272 19.4802 162.567 19.7391 162.774 20.0763C162.981 20.4135 163.084 20.814 163.084 21.2776C163.084 21.7413 162.981 22.1418 162.774 22.479C162.567 22.8162 162.272 23.0751 161.887 23.2558C161.508 23.4364 161.051 23.5268 160.517 23.5268H158.656L159.155 22.9758V25.3514H158.035ZM159.155 23.1022L158.656 22.5332H160.465C160.959 22.5332 161.33 22.4248 161.577 22.208C161.829 21.9852 161.956 21.6751 161.956 21.2776C161.956 20.8742 161.829 20.5641 161.577 20.3473C161.33 20.1305 160.959 20.0221 160.465 20.0221H158.656L159.155 19.444V23.1022Z" fill="white"/>
<path d="M163.074 25.3514L165.788 19.0285H166.891L169.614 25.3514H168.442L166.107 19.6518H166.555L164.229 25.3514H163.074ZM164.323 23.8881L164.625 22.9667H167.882L168.183 23.8881H164.323Z" fill="white"/>
<path d="M170.547 25.3514V19.0285H173.244C173.922 19.0285 174.45 19.17 174.829 19.4531C175.208 19.7301 175.398 20.1305 175.398 20.6544C175.398 21.1723 175.217 21.5727 174.855 21.8557C174.493 22.1327 174.016 22.2712 173.425 22.2712L173.58 21.9461C174.252 21.9461 174.772 22.0876 175.139 22.3706C175.507 22.6536 175.691 23.0631 175.691 23.599C175.691 24.147 175.498 24.5776 175.114 24.8907C174.729 25.1978 174.16 25.3514 173.408 25.3514H170.547ZM171.65 24.4481H173.373C173.764 24.4481 174.06 24.3728 174.261 24.2223C174.462 24.0657 174.562 23.8279 174.562 23.5087C174.562 23.1895 174.462 22.9577 174.261 22.8132C174.06 22.6626 173.764 22.5874 173.373 22.5874H171.65V24.4481ZM171.65 21.7293H173.149C173.511 21.7293 173.787 21.654 173.976 21.5035C174.166 21.3469 174.261 21.1241 174.261 20.835C174.261 20.534 174.166 20.3081 173.976 20.1576C173.787 20.0071 173.511 19.9318 173.149 19.9318H171.65V21.7293Z" fill="white"/>
<path d="M176.855 25.4417C176.757 25.4417 176.659 25.4326 176.562 25.4146C176.464 25.3965 176.358 25.3754 176.243 25.3514L176.321 24.3307C176.401 24.3548 176.487 24.3668 176.579 24.3668C176.82 24.3668 177.013 24.2644 177.156 24.0597C177.3 23.8489 177.403 23.5418 177.466 23.1384C177.53 22.7349 177.573 22.2381 177.596 21.648L177.682 19.0285H182.119V25.3514H181.016V19.7331L181.275 20.0221H178.406L178.647 19.724L178.587 21.6028C178.569 22.2291 178.529 22.7801 178.466 23.2558C178.403 23.7315 178.305 24.1319 178.173 24.4571C178.047 24.7763 177.877 25.0202 177.665 25.1888C177.452 25.3574 177.182 25.4417 176.855 25.4417Z" fill="white"/>
<path d="M184.85 21.657H187.848V22.6235H184.85V21.657ZM184.936 24.3668H188.339V25.3514H183.816V19.0285H188.218V20.0131H184.936V24.3668Z" fill="white"/>
<path d="M193.827 19.0285H194.947V25.3514H193.827V19.0285ZM190.708 25.3514H189.588V19.0285H190.708V25.3514ZM193.913 22.6416H190.613V21.639H193.913V22.6416Z" fill="white"/>
<path d="M196.647 25.3514V19.0285H197.75V23.5177L200.989 19.0285H202.032V25.3514H200.929V20.8712L197.69 25.3514H196.647Z" fill="white"/>
<path d="M207.23 25.3514V23.328L207.505 23.59H205.739C205.234 23.59 204.797 23.5027 204.43 23.328C204.068 23.1474 203.789 22.8915 203.594 22.5603C203.398 22.2231 203.301 21.8196 203.301 21.3499C203.301 20.8621 203.404 20.4466 203.611 20.1034C203.818 19.7541 204.111 19.4892 204.49 19.3085C204.869 19.1219 205.314 19.0285 205.825 19.0285H208.332V25.3514H207.23ZM203.318 25.3514L204.809 23.0932H205.937L204.498 25.3514H203.318ZM207.23 22.9487V19.6969L207.505 20.0221H205.86C205.4 20.0221 205.047 20.1335 204.8 20.3563C204.559 20.5731 204.438 20.8983 204.438 21.3318C204.438 21.7473 204.553 22.0695 204.783 22.2983C205.018 22.5211 205.363 22.6325 205.817 22.6325H207.505L207.23 22.9487Z" fill="white"/>
<path d="M212.423 25.3514V19.0285H213.526V23.5177L216.766 19.0285H217.808V25.3514H216.705V20.8712L213.466 25.3514H212.423Z" fill="white"/>
<path d="M221.889 25.3514V19.0285H222.992V23.5177L226.231 19.0285H227.274V25.3514H226.171V20.8712L222.931 25.3514H221.889Z" fill="white"/>
<path d="M231.739 25.4417C231.28 25.4417 230.852 25.3634 230.455 25.2068C230.065 25.0442 229.723 24.8184 229.43 24.5294C229.143 24.2343 228.919 23.8881 228.758 23.4906C228.597 23.0932 228.517 22.6596 228.517 22.1899C228.517 21.7202 228.597 21.2867 228.758 20.8892C228.919 20.4918 229.146 20.1486 229.439 19.8595C229.732 19.5645 230.073 19.3386 230.464 19.1821C230.855 19.0195 231.282 18.9382 231.748 18.9382C232.242 18.9382 232.693 19.0285 233.1 19.2092C233.508 19.3838 233.853 19.6458 234.134 19.995L233.411 20.7086C233.192 20.4617 232.948 20.278 232.678 20.1576C232.408 20.0311 232.115 19.9679 231.799 19.9679C231.483 19.9679 231.193 20.0221 230.929 20.1305C230.671 20.2389 230.444 20.3925 230.249 20.5912C230.059 20.7899 229.91 21.0247 229.801 21.2957C229.697 21.5667 229.645 21.8648 229.645 22.1899C229.645 22.5151 229.697 22.8132 229.801 23.0842C229.91 23.3551 230.059 23.59 230.249 23.7887C230.444 23.9874 230.671 24.141 230.929 24.2494C231.193 24.3578 231.483 24.412 231.799 24.412C232.115 24.412 232.408 24.3517 232.678 24.2313C232.948 24.1049 233.192 23.9152 233.411 23.6623L234.134 24.3849C233.853 24.7281 233.508 24.99 233.1 25.1707C232.693 25.3514 232.239 25.4417 231.739 25.4417Z" fill="white"/>
<path d="M236.373 25.3514V19.7331L236.641 20.0221H234.383V19.0285H239.484V20.0221H237.226L237.485 19.7331V25.3514H236.373Z" fill="white"/>
<path d="M243.166 25.4417C242.695 25.4417 242.261 25.3604 241.865 25.1978C241.468 25.0352 241.124 24.8094 240.831 24.5204C240.538 24.2253 240.311 23.882 240.15 23.4906C239.989 23.0932 239.909 22.6596 239.909 22.1899C239.909 21.7202 239.989 21.2897 240.15 20.8983C240.311 20.5008 240.538 20.1576 240.831 19.8686C241.124 19.5735 241.468 19.3447 241.865 19.1821C242.261 19.0195 242.692 18.9382 243.157 18.9382C243.628 18.9382 244.059 19.0195 244.45 19.1821C244.846 19.3447 245.191 19.5735 245.483 19.8686C245.776 20.1576 246.003 20.5008 246.164 20.8983C246.325 21.2897 246.405 21.7202 246.405 22.1899C246.405 22.6596 246.325 23.0932 246.164 23.4906C246.003 23.8881 245.776 24.2313 245.483 24.5204C245.191 24.8094 244.846 25.0352 244.45 25.1978C244.059 25.3604 243.631 25.4417 243.166 25.4417ZM243.157 24.412C243.462 24.412 243.743 24.3578 244.002 24.2494C244.26 24.141 244.484 23.9874 244.674 23.7887C244.863 23.584 245.01 23.3491 245.113 23.0842C245.222 22.8132 245.277 22.5151 245.277 22.1899C245.277 21.8648 245.222 21.5697 245.113 21.3047C245.01 21.0338 244.863 20.7989 244.674 20.6002C244.484 20.3955 244.26 20.2389 244.002 20.1305C243.743 20.0221 243.462 19.9679 243.157 19.9679C242.853 19.9679 242.571 20.0221 242.313 20.1305C242.06 20.2389 241.836 20.3955 241.641 20.6002C241.451 20.7989 241.302 21.0338 241.193 21.3047C241.089 21.5697 241.038 21.8648 241.038 22.1899C241.038 22.5091 241.089 22.8042 241.193 23.0751C241.302 23.3461 241.451 23.584 241.641 23.7887C241.83 23.9874 242.054 24.141 242.313 24.2494C242.571 24.3578 242.853 24.412 243.157 24.412Z" fill="white"/>
<path d="M247.644 25.3514V19.0285H250.125C250.659 19.0285 251.116 19.1189 251.495 19.2995C251.88 19.4802 252.176 19.7391 252.382 20.0763C252.589 20.4135 252.693 20.814 252.693 21.2776C252.693 21.7413 252.589 22.1418 252.382 22.479C252.176 22.8162 251.88 23.0751 251.495 23.2558C251.116 23.4364 250.659 23.5268 250.125 23.5268H248.264L248.764 22.9758V25.3514H247.644ZM248.764 23.1022L248.264 22.5332H250.073C250.567 22.5332 250.938 22.4248 251.185 22.208C251.438 21.9852 251.564 21.6751 251.564 21.2776C251.564 20.8742 251.438 20.5641 251.185 20.3473C250.938 20.1305 250.567 20.0221 250.073 20.0221H248.264L248.764 19.444V23.1022Z" fill="white"/>
<path d="M253.761 25.3514V19.0285H254.864V23.5177L258.103 19.0285H259.146V25.3514H258.043V20.8712L254.803 25.3514H253.761Z" fill="white"/>
<path d="M260.845 25.3514V19.0285H261.948V23.5177L265.188 19.0285H266.23V25.3514H265.127V20.8712L261.888 25.3514H260.845Z" fill="white"/>
<path d="M135.079 31.4849C135.079 31.761 135.303 31.9849 135.579 31.9849C135.855 31.9849 136.079 31.761 136.079 31.4849H135.579H135.079ZM135.579 2.48486H135.079V31.4849H135.579H136.079V2.48486H135.579Z" fill="white"/>
</svg>
